<?xml version="1.0" encoding="UTF-8" standalone="no"?>
<svg
   height="157.50mm"
   viewBox="0.0 0.0 313.50 157.50"
   width="313.50mm"
   version="1.1"
   id="svg7"
   sodipodi:docname="Boîte batterie.svg"
   inkscape:version="1.4 (86a8ad7, 2024-10-11)"
   xmlns:inkscape="http://www.inkscape.org/namespaces/inkscape"
   xmlns:sodipodi="http://sodipodi.sourceforge.net/DTD/sodipodi-0.dtd"
   xmlns="http://www.w3.org/2000/svg"
   xmlns:svg="http://www.w3.org/2000/svg"
   xmlns:rdf="http://www.w3.org/1999/02/22-rdf-syntax-ns#"
   xmlns:cc="http://creativecommons.org/ns#"
   xmlns:dc="http://purl.org/dc/elements/1.1/">
  <defs
     id="defs7" />
  <sodipodi:namedview
     id="namedview7"
     pagecolor="#ffffff"
     bordercolor="#000000"
     borderopacity="0.25"
     inkscape:showpageshadow="2"
     inkscape:pageopacity="0.0"
     inkscape:pagecheckerboard="0"
     inkscape:deskcolor="#d1d1d1"
     inkscape:document-units="mm"
     inkscape:zoom="1.3862379"
     inkscape:cx="615.3345"
     inkscape:cy="97.025193"
     inkscape:window-width="2560"
     inkscape:window-height="1369"
     inkscape:window-x="-8"
     inkscape:window-y="-8"
     inkscape:window-maximized="1"
     inkscape:current-layer="p-1" />
  <!--
ClosedBox - Fully closed box


This box is more of a building block than a finished item.
Use a vector graphics program (like Inkscape) to add holes or adjust the base
plate.

See BasedBox for variant with a base.


Created with Boxes.py (https://boxes.hackerspace-bamberg.de/)
Creation date: 2025-02-18 10:08:30
Command line (remove spaces between dashes): boxes ClosedBox - -x=146 - -y=81 - -h=21 - -burn=0
Url: https://boxes.hackerspace-bamberg.de/ClosedBox?FingerJoint_style=rectangular&FingerJoint_surroundingspaces=2.0&FingerJoint_bottom_lip=0.0&FingerJoint_edge_width=1.0&FingerJoint_extra_length=0.0&FingerJoint_finger=2.0&FingerJoint_play=0.0&FingerJoint_space=2.0&FingerJoint_width=1.0&x=146&y=81&h=21&outside=0&outside=1&thickness=3.0&format=svg&tabs=0.0&qr_code=0&debug=0&labels=0&labels=1&reference=100.0&inner_corners=loop&burn=0&language=fr&render=2
Url short: https://boxes.hackerspace-bamberg.de/ClosedBox?x=146&y=81&h=21&burn=0
SettingsUrl: https://boxes.hackerspace-bamberg.de/ClosedBox?FingerJoint_style=rectangular&FingerJoint_surroundingspaces=2.0&FingerJoint_bottom_lip=0.0&FingerJoint_edge_width=1.0&FingerJoint_extra_length=0.0&FingerJoint_finger=2.0&FingerJoint_play=0.0&FingerJoint_space=2.0&FingerJoint_width=1.0&x=146&y=81&h=21&outside=0&outside=1&thickness=3.0&format=svg&tabs=0.0&qr_code=0&debug=0&labels=0&labels=1&reference=100.0&inner_corners=loop&burn=0&language=fr&render=2
SettingsUrl short: https://boxes.hackerspace-bamberg.de/ClosedBox?x=146&y=81&h=21&burn=0
-->
  <title
     id="title1">ClosedBox</title>
  <metadata
     id="metadata1">
    <rdf:RDF>
      <cc:Work>
        <dc:title>Box - ClosedBox</dc:title>
        <dc:date>2025-02-18 10:08:30</dc:date>
        <dc:source>https://boxes.hackerspace-bamberg.de/ClosedBox?FingerJoint_style=rectangular&amp;FingerJoint_surroundingspaces=2.0&amp;FingerJoint_bottom_lip=0.0&amp;FingerJoint_edge_width=1.0&amp;FingerJoint_extra_length=0.0&amp;FingerJoint_finger=2.0&amp;FingerJoint_play=0.0&amp;FingerJoint_space=2.0&amp;FingerJoint_width=1.0&amp;x=146&amp;y=81&amp;h=21&amp;outside=0&amp;outside=1&amp;thickness=3.0&amp;format=svg&amp;tabs=0.0&amp;qr_code=0&amp;debug=0&amp;labels=0&amp;labels=1&amp;reference=100.0&amp;inner_corners=loop&amp;burn=0&amp;language=fr&amp;render=2</dc:source>
        <dc:source>https://boxes.hackerspace-bamberg.de/ClosedBox?x=146&amp;y=81&amp;h=21&amp;burn=0</dc:source>
        <dc:description>Fully closed box

This box is more of a building block than a finished item.
Use a vector graphics program (like Inkscape) to add holes or adjust the base
plate.

See BasedBox for variant with a base.

Created with Boxes.py (https://boxes.hackerspace-bamberg.de/)
Command line: boxes ClosedBox --FingerJoint_style=rectangular --FingerJoint_surroundingspaces=2.0 --FingerJoint_bottom_lip=0.0 --FingerJoint_edge_width=1.0 --FingerJoint_extra_length=0.0 --FingerJoint_finger=2.0 --FingerJoint_play=0.0 --FingerJoint_space=2.0 --FingerJoint_width=1.0 --x=146 --y=81 --h=21 --outside=0 --outside=1 --thickness=3.0 --format=svg --tabs=0.0 --qr_code=0 --debug=0 --labels=0 --labels=1 --reference=100.0 --inner_corners=loop --burn=0
Command line short: boxes ClosedBox --x=146 --y=81 --h=21 --burn=0
Url: https://boxes.hackerspace-bamberg.de/ClosedBox?FingerJoint_style=rectangular&amp;FingerJoint_surroundingspaces=2.0&amp;FingerJoint_bottom_lip=0.0&amp;FingerJoint_edge_width=1.0&amp;FingerJoint_extra_length=0.0&amp;FingerJoint_finger=2.0&amp;FingerJoint_play=0.0&amp;FingerJoint_space=2.0&amp;FingerJoint_width=1.0&amp;x=146&amp;y=81&amp;h=21&amp;outside=0&amp;outside=1&amp;thickness=3.0&amp;format=svg&amp;tabs=0.0&amp;qr_code=0&amp;debug=0&amp;labels=0&amp;labels=1&amp;reference=100.0&amp;inner_corners=loop&amp;burn=0&amp;language=fr&amp;render=2
Url short: https://boxes.hackerspace-bamberg.de/ClosedBox?x=146&amp;y=81&amp;h=21&amp;burn=0
SettingsUrl: https://boxes.hackerspace-bamberg.de/ClosedBox?FingerJoint_style=rectangular&amp;FingerJoint_surroundingspaces=2.0&amp;FingerJoint_bottom_lip=0.0&amp;FingerJoint_edge_width=1.0&amp;FingerJoint_extra_length=0.0&amp;FingerJoint_finger=2.0&amp;FingerJoint_play=0.0&amp;FingerJoint_space=2.0&amp;FingerJoint_width=1.0&amp;x=146&amp;y=81&amp;h=21&amp;outside=0&amp;outside=1&amp;thickness=3.0&amp;format=svg&amp;tabs=0.0&amp;qr_code=0&amp;debug=0&amp;labels=0&amp;labels=1&amp;reference=100.0&amp;inner_corners=loop&amp;burn=0&amp;language=fr&amp;render=2
SettingsUrl short: https://boxes.hackerspace-bamberg.de/ClosedBox?x=146&amp;y=81&amp;h=21&amp;burn=0
</dc:description>
      </cc:Work>
    </rdf:RDF>
  </metadata>
  <g
     id="p-0"
     style="fill:none;stroke-linecap:round;stroke-linejoin:round;">
    <path
       d="M 10.000 147.500 H 110.000 V 137.500 H 10.000 V 147.500 Z"
       stroke="rgb(0,0,0)"
       stroke-width="0.05"
       id="path1" />
    <text
       dominant-baseline="hanging"
       font-size="6px"
       style="font-family: sans-serif ; font-weight: normal; font-style: normal; fill: rgb(255,0,0)"
       text-anchor="middle"
       transform="matrix( 1.000 0.000 0.000 1.000 60.000 139.500 )"
       id="text1">100.0mm, burn:0.00mm</text>
  </g>
  <g
     id="p-1"
     style="fill:none;stroke-linecap:round;stroke-linejoin:round;fill-opacity:0.40413004;stroke:#ff0000;stroke-opacity:1">
    <path
       d="M 13.000 136.000 H 20.000 V 133.000 H 26.000 V 136.000 H 32.000 V 133.000 H 38.000 V 136.000 H 44.000 V 133.000 H 50.000 V 136.000 H 56.000 V 133.000 H 62.000 V 136.000 H 68.000 V 133.000 H 74.000 V 136.000 H 80.000 V 133.000 H 86.000 V 136.000 H 92.000 V 133.000 H 98.000 V 136.000 H 104.000 V 133.000 H 110.000 V 136.000 H 116.000 V 133.000 H 122.000 V 136.000 H 128.000 V 133.000 H 134.000 V 136.000 H 140.000 V 133.000 H 146.000 V 136.000 H 153.000 H 156.000 V 133.000 V 128.500 H 153.000 V 122.500 H 156.000 V 118.000 V 115.000 H 153.000 H 146.000 V 118.000 H 140.000 V 115.000 H 134.000 V 118.000 H 128.000 V 115.000 H 122.000 V 118.000 H 116.000 V 115.000 H 110.000 V 118.000 H 104.000 V 115.000 H 98.000 V 118.000 H 92.000 V 115.000 H 86.000 V 118.000 H 80.000 V 115.000 H 74.000 V 118.000 H 68.000 V 115.000 H 62.000 V 118.000 H 56.000 V 115.000 H 50.000 V 118.000 H 44.000 V 115.000 H 38.000 V 118.000 H 32.000 V 115.000 H 26.000 V 118.000 H 20.000 V 115.000 H 13.000 H 10.000 V 118.000 V 122.500 H 13.000 V 128.500 H 10.000 V 133.000 V 136.000 H 13.000"
       stroke="rgb(0,0,0)"
       stroke-width="0.05"
       id="path2"
       style="fill:none;fill-opacity:0.40413004;stroke:#ff0000;stroke-opacity:1" />
  </g>
  <g
     id="p-2"
     style="fill:none;stroke-linecap:round;stroke-linejoin:round;fill-opacity:0.40413004;stroke:#ff0000;stroke-opacity:1">
    <path
       d="M 160.500 136.000 H 171.000 V 133.000 H 177.000 V 136.000 H 183.000 V 133.000 H 189.000 V 136.000 H 195.000 V 133.000 H 201.000 V 136.000 H 207.000 V 133.000 H 213.000 V 136.000 H 219.000 V 133.000 H 225.000 V 136.000 H 235.500 V 133.000 V 128.500 H 238.500 V 122.500 H 235.500 V 118.000 V 115.000 H 225.000 V 118.000 H 219.000 V 115.000 H 213.000 V 118.000 H 207.000 V 115.000 H 201.000 V 118.000 H 195.000 V 115.000 H 189.000 V 118.000 H 183.000 V 115.000 H 177.000 V 118.000 H 171.000 V 115.000 H 160.500 V 118.000 V 122.500 H 157.500 V 128.500 H 160.500 V 133.000 V 136.000"
       stroke="rgb(0,0,0)"
       stroke-width="0.05"
       id="path3"
       style="fill:none;fill-opacity:0.40413004;stroke:#ff0000;stroke-opacity:1" />
  </g>
  <g
     id="p-3"
     style="fill:none;stroke-linecap:round;stroke-linejoin:round;fill-opacity:0.40413004;stroke:#ff0000;stroke-opacity:1">
    <path
       d="M 160.500 113.500 H 171.000 V 110.500 H 177.000 V 113.500 H 183.000 V 110.500 H 189.000 V 113.500 H 195.000 V 110.500 H 201.000 V 113.500 H 207.000 V 110.500 H 213.000 V 113.500 H 219.000 V 110.500 H 225.000 V 113.500 H 235.500 V 110.500 V 106.000 H 238.500 V 100.000 H 235.500 V 95.500 V 92.500 H 225.000 V 95.500 H 219.000 V 92.500 H 213.000 V 95.500 H 207.000 V 92.500 H 201.000 V 95.500 H 195.000 V 92.500 H 189.000 V 95.500 H 183.000 V 92.500 H 177.000 V 95.500 H 171.000 V 92.500 H 160.500 V 95.500 V 100.000 H 157.500 V 106.000 H 160.500 V 110.500 V 113.500"
       stroke="rgb(0,0,0)"
       stroke-width="0.05"
       id="path4"
       style="fill:none;fill-opacity:0.40413004;stroke:#ff0000;stroke-opacity:1" />
  </g>
  <g
     id="p-4"
     style="fill:none;stroke-linecap:round;stroke-linejoin:round;fill-opacity:0.40413004;stroke:#ff0000;stroke-opacity:1">
    <path
       d="M 13.000 113.500 H 20.000 V 110.500 H 26.000 V 113.500 H 32.000 V 110.500 H 38.000 V 113.500 H 44.000 V 110.500 H 50.000 V 113.500 H 56.000 V 110.500 H 62.000 V 113.500 H 68.000 V 110.500 H 74.000 V 113.500 H 80.000 V 110.500 H 86.000 V 113.500 H 92.000 V 110.500 H 98.000 V 113.500 H 104.000 V 110.500 H 110.000 V 113.500 H 116.000 V 110.500 H 122.000 V 113.500 H 128.000 V 110.500 H 134.000 V 113.500 H 140.000 V 110.500 H 146.000 V 113.500 H 153.000 H 156.000 V 110.500 V 106.000 H 153.000 V 100.000 H 156.000 V 95.500 V 92.500 H 153.000 H 146.000 V 95.500 H 140.000 V 92.500 H 134.000 V 95.500 H 128.000 V 92.500 H 122.000 V 95.500 H 116.000 V 92.500 H 110.000 V 95.500 H 104.000 V 92.500 H 98.000 V 95.500 H 92.000 V 92.500 H 86.000 V 95.500 H 80.000 V 92.500 H 74.000 V 95.500 H 68.000 V 92.500 H 62.000 V 95.500 H 56.000 V 92.500 H 50.000 V 95.500 H 44.000 V 92.500 H 38.000 V 95.500 H 32.000 V 92.500 H 26.000 V 95.500 H 20.000 V 92.500 H 13.000 H 10.000 V 95.500 V 100.000 H 13.000 V 106.000 H 10.000 V 110.500 V 113.500 H 13.000"
       stroke="rgb(0,0,0)"
       stroke-width="0.05"
       id="path5"
       style="fill:none;fill-opacity:0.40413004;stroke:#ff0000;stroke-opacity:1" />
  </g>
  <g
     id="p-5"
     style="fill:none;stroke-linecap:round;stroke-linejoin:round;fill-opacity:0.40413004;stroke:#ff0000;stroke-opacity:1">
    <path
       d="M 13.000 88.000 H 20.000 V 91.000 H 26.000 V 88.000 H 32.000 V 91.000 H 38.000 V 88.000 H 44.000 V 91.000 H 50.000 V 88.000 H 56.000 V 91.000 H 62.000 V 88.000 H 68.000 V 91.000 H 74.000 V 88.000 H 80.000 V 91.000 H 86.000 V 88.000 H 92.000 V 91.000 H 98.000 V 88.000 H 104.000 V 91.000 H 110.000 V 88.000 H 116.000 V 91.000 H 122.000 V 88.000 H 128.000 V 91.000 H 134.000 V 88.000 H 140.000 V 91.000 H 146.000 V 88.000 H 153.000 V 77.500 H 156.000 V 71.500 H 153.000 V 65.500 H 156.000 V 59.500 H 153.000 V 53.500 H 156.000 V 47.500 H 153.000 V 41.500 H 156.000 V 35.500 H 153.000 V 29.500 H 156.000 V 23.500 H 153.000 V 13.000 H 146.000 V 10.000 H 140.000 V 13.000 H 134.000 V 10.000 H 128.000 V 13.000 H 122.000 V 10.000 H 116.000 V 13.000 H 110.000 V 10.000 H 104.000 V 13.000 H 98.000 V 10.000 H 92.000 V 13.000 H 86.000 V 10.000 H 80.000 V 13.000 H 74.000 V 10.000 H 68.000 V 13.000 H 62.000 V 10.000 H 56.000 V 13.000 H 50.000 V 10.000 H 44.000 V 13.000 H 38.000 V 10.000 H 32.000 V 13.000 H 26.000 V 10.000 H 20.000 V 13.000 H 13.000 V 23.500 H 10.000 V 29.500 H 13.000 V 35.500 H 10.000 V 41.500 H 13.000 V 47.500 H 10.000 V 53.500 H 13.000 V 59.500 H 10.000 V 65.500 H 13.000 V 71.500 H 10.000 V 77.500 H 13.000 V 88.000"
       stroke="rgb(0,0,0)"
       stroke-width="0.05"
       id="path6"
       style="fill:none;fill-opacity:0.40413004;stroke:#ff0000;stroke-opacity:1" />
  </g>
  <g
     id="p-6"
     style="fill:none;stroke-linecap:round;stroke-linejoin:round;fill-opacity:0.40413004;stroke:#ff0000;stroke-opacity:1">
    <path
       d="M 160.500 88.000 H 167.500 V 91.000 H 173.500 V 88.000 H 179.500 V 91.000 H 185.500 V 88.000 H 191.500 V 91.000 H 197.500 V 88.000 H 203.500 V 91.000 H 209.500 V 88.000 H 215.500 V 91.000 H 221.500 V 88.000 H 227.500 V 91.000 H 233.500 V 88.000 H 239.500 V 91.000 H 245.500 V 88.000 H 251.500 V 91.000 H 257.500 V 88.000 H 263.500 V 91.000 H 269.500 V 88.000 H 275.500 V 91.000 H 281.500 V 88.000 H 287.500 V 91.000 H 293.500 V 88.000 H 300.500 V 77.500 H 303.500 V 71.500 H 300.500 V 65.500 H 303.500 V 59.500 H 300.500 V 53.500 H 303.500 V 47.500 H 300.500 V 41.500 H 303.500 V 35.500 H 300.500 V 29.500 H 303.500 V 23.500 H 300.500 V 13.000 H 293.500 V 10.000 H 287.500 V 13.000 H 281.500 V 10.000 H 275.500 V 13.000 H 269.500 V 10.000 H 263.500 V 13.000 H 257.500 V 10.000 H 251.500 V 13.000 H 245.500 V 10.000 H 239.500 V 13.000 H 233.500 V 10.000 H 227.500 V 13.000 H 221.500 V 10.000 H 215.500 V 13.000 H 209.500 V 10.000 H 203.500 V 13.000 H 197.500 V 10.000 H 191.500 V 13.000 H 185.500 V 10.000 H 179.500 V 13.000 H 173.500 V 10.000 H 167.500 V 13.000 H 160.500 V 23.500 H 157.500 V 29.500 H 160.500 V 35.500 H 157.500 V 41.500 H 160.500 V 47.500 H 157.500 V 53.500 H 160.500 V 59.500 H 157.500 V 65.500 H 160.500 V 71.500 H 157.500 V 77.500 H 160.500 V 88.000"
       stroke="rgb(0,0,0)"
       stroke-width="0.05"
       id="path7"
       style="fill:none;fill-opacity:0.40413004;stroke:#ff0000;stroke-opacity:1" />
  </g>
  <rect
     style="fill:none;fill-opacity:0.40413004;stroke-width:0.2;stroke:#ff0000;stroke-opacity:1"
     id="rect7"
     width="60"
     height="15"
     x="168"
     y="95.5" />
</svg>
