<?xml version="1.0" encoding="UTF-8" standalone="no"?>
<svg
   height="352.50mm"
   viewBox="0.0 0.0 533.50 352.50"
   width="533.50mm"
   version="1.1"
   id="svg7"
   sodipodi:docname="Corps.svg"
   inkscape:version="1.3 (0e150ed6c4, 2023-07-21)"
   xml:space="preserve"
   xmlns:inkscape="http://www.inkscape.org/namespaces/inkscape"
   xmlns:sodipodi="http://sodipodi.sourceforge.net/DTD/sodipodi-0.dtd"
   xmlns="http://www.w3.org/2000/svg"
   xmlns:svg="http://www.w3.org/2000/svg"
   xmlns:rdf="http://www.w3.org/1999/02/22-rdf-syntax-ns#"
   xmlns:cc="http://creativecommons.org/ns#"
   xmlns:dc="http://purl.org/dc/elements/1.1/"><defs
     id="defs7" /><sodipodi:namedview
     id="namedview7"
     pagecolor="#ffffff"
     bordercolor="#000000"
     borderopacity="0.25"
     inkscape:showpageshadow="2"
     inkscape:pageopacity="0.0"
     inkscape:pagecheckerboard="0"
     inkscape:deskcolor="#d1d1d1"
     inkscape:document-units="mm"
     inkscape:zoom="1.7518794"
     inkscape:cx="1084.835"
     inkscape:cy="1113.9465"
     inkscape:window-width="1680"
     inkscape:window-height="987"
     inkscape:window-x="-8"
     inkscape:window-y="-8"
     inkscape:window-maximized="1"
     inkscape:current-layer="svg7" /><!--
ClosedBox - Fully closed box


This box is more of a building block than a finished item.
Use a vector graphics program (like Inkscape) to add holes or adjust the base
plate.

See BasedBox for variant with a base.


Created with Boxes.py (https://boxes.hackerspace-bamberg.de/)
Creation date: 2025-02-18 09:07:19
Command line (remove spaces between dashes): boxes ClosedBox - -x=256 - -y=106 - -h=106 - -burn=0
Url: https://boxes.hackerspace-bamberg.de/ClosedBox?FingerJoint_style=rectangular&FingerJoint_surroundingspaces=2.0&FingerJoint_bottom_lip=0.0&FingerJoint_edge_width=1.0&FingerJoint_extra_length=0.0&FingerJoint_finger=2.0&FingerJoint_play=0.0&FingerJoint_space=2.0&FingerJoint_width=1.0&x=256&y=106&h=106&outside=0&outside=1&thickness=3.0&format=svg&tabs=0.0&qr_code=0&debug=0&labels=0&labels=1&reference=100.0&inner_corners=loop&burn=0&language=fr&render=1
Url short: https://boxes.hackerspace-bamberg.de/ClosedBox?x=256&y=106&h=106&burn=0
SettingsUrl: https://boxes.hackerspace-bamberg.de/ClosedBox?FingerJoint_style=rectangular&FingerJoint_surroundingspaces=2.0&FingerJoint_bottom_lip=0.0&FingerJoint_edge_width=1.0&FingerJoint_extra_length=0.0&FingerJoint_finger=2.0&FingerJoint_play=0.0&FingerJoint_space=2.0&FingerJoint_width=1.0&x=256&y=106&h=106&outside=0&outside=1&thickness=3.0&format=svg&tabs=0.0&qr_code=0&debug=0&labels=0&labels=1&reference=100.0&inner_corners=loop&burn=0&language=fr
SettingsUrl short: https://boxes.hackerspace-bamberg.de/ClosedBox?x=256&y=106&h=106&burn=0
--><title
     id="title1">ClosedBox</title><metadata
     id="metadata1"><rdf:RDF><cc:Work><dc:title>Box - ClosedBox</dc:title><dc:date>2025-02-18 09:07:19</dc:date><dc:source>https://boxes.hackerspace-bamberg.de/ClosedBox?FingerJoint_style=rectangular&amp;FingerJoint_surroundingspaces=2.0&amp;FingerJoint_bottom_lip=0.0&amp;FingerJoint_edge_width=1.0&amp;FingerJoint_extra_length=0.0&amp;FingerJoint_finger=2.0&amp;FingerJoint_play=0.0&amp;FingerJoint_space=2.0&amp;FingerJoint_width=1.0&amp;x=256&amp;y=106&amp;h=106&amp;outside=0&amp;outside=1&amp;thickness=3.0&amp;format=svg&amp;tabs=0.0&amp;qr_code=0&amp;debug=0&amp;labels=0&amp;labels=1&amp;reference=100.0&amp;inner_corners=loop&amp;burn=0&amp;language=fr&amp;render=1</dc:source><dc:source>https://boxes.hackerspace-bamberg.de/ClosedBox?x=256&amp;y=106&amp;h=106&amp;burn=0</dc:source><dc:description>Fully closed box&#10;&#10;This box is more of a building block than a finished item.&#10;Use a vector graphics program (like Inkscape) to add holes or adjust the base&#10;plate.&#10;&#10;See BasedBox for variant with a base.&#10;&#10;Created with Boxes.py (https://boxes.hackerspace-bamberg.de/)&#10;Command line: boxes ClosedBox --FingerJoint_style=rectangular --FingerJoint_surroundingspaces=2.0 --FingerJoint_bottom_lip=0.0 --FingerJoint_edge_width=1.0 --FingerJoint_extra_length=0.0 --FingerJoint_finger=2.0 --FingerJoint_play=0.0 --FingerJoint_space=2.0 --FingerJoint_width=1.0 --x=256 --y=106 --h=106 --outside=0 --outside=1 --thickness=3.0 --format=svg --tabs=0.0 --qr_code=0 --debug=0 --labels=0 --labels=1 --reference=100.0 --inner_corners=loop --burn=0&#10;Command line short: boxes ClosedBox --x=256 --y=106 --h=106 --burn=0&#10;Url: https://boxes.hackerspace-bamberg.de/ClosedBox?FingerJoint_style=rectangular&amp;FingerJoint_surroundingspaces=2.0&amp;FingerJoint_bottom_lip=0.0&amp;FingerJoint_edge_width=1.0&amp;FingerJoint_extra_length=0.0&amp;FingerJoint_finger=2.0&amp;FingerJoint_play=0.0&amp;FingerJoint_space=2.0&amp;FingerJoint_width=1.0&amp;x=256&amp;y=106&amp;h=106&amp;outside=0&amp;outside=1&amp;thickness=3.0&amp;format=svg&amp;tabs=0.0&amp;qr_code=0&amp;debug=0&amp;labels=0&amp;labels=1&amp;reference=100.0&amp;inner_corners=loop&amp;burn=0&amp;language=fr&amp;render=1&#10;Url short: https://boxes.hackerspace-bamberg.de/ClosedBox?x=256&amp;y=106&amp;h=106&amp;burn=0&#10;SettingsUrl: https://boxes.hackerspace-bamberg.de/ClosedBox?FingerJoint_style=rectangular&amp;FingerJoint_surroundingspaces=2.0&amp;FingerJoint_bottom_lip=0.0&amp;FingerJoint_edge_width=1.0&amp;FingerJoint_extra_length=0.0&amp;FingerJoint_finger=2.0&amp;FingerJoint_play=0.0&amp;FingerJoint_space=2.0&amp;FingerJoint_width=1.0&amp;x=256&amp;y=106&amp;h=106&amp;outside=0&amp;outside=1&amp;thickness=3.0&amp;format=svg&amp;tabs=0.0&amp;qr_code=0&amp;debug=0&amp;labels=0&amp;labels=1&amp;reference=100.0&amp;inner_corners=loop&amp;burn=0&amp;language=fr&#10;SettingsUrl short: https://boxes.hackerspace-bamberg.de/ClosedBox?x=256&amp;y=106&amp;h=106&amp;burn=0&#10;</dc:description></cc:Work></rdf:RDF></metadata><g
     id="p-0"
     style="fill:none;stroke-linecap:round;stroke-linejoin:round;"><path
       d="M 10.000 342.500 H 110.000 V 332.500 H 10.000 V 342.500 Z"
       stroke="rgb(0,0,0)"
       stroke-width="0.05"
       id="path1" /><text
       dominant-baseline="hanging"
       font-size="6px"
       style="font-family: sans-serif ; font-weight: normal; font-style: normal; fill: rgb(255,0,0)"
       text-anchor="middle"
       transform="matrix( 1.000 0.000 0.000 1.000 60.000 334.500 )"
       id="text1">100.0mm, burn:0.00mm</text></g><g
     id="p-1"
     style="fill:none;stroke-linecap:round;stroke-linejoin:round;stroke:#ff0000;stroke-opacity:1"><path
       d="M 13.000 331.000 H 21.000 V 328.000 H 27.000 V 331.000 H 33.000 V 328.000 H 39.000 V 331.000 H 45.000 V 328.000 H 51.000 V 331.000 H 57.000 V 328.000 H 63.000 V 331.000 H 69.000 V 328.000 H 75.000 V 331.000 H 81.000 V 328.000 H 87.000 V 331.000 H 93.000 V 328.000 H 99.000 V 331.000 H 105.000 V 328.000 H 111.000 V 331.000 H 117.000 V 328.000 H 123.000 V 331.000 H 129.000 V 328.000 H 135.000 V 331.000 H 141.000 V 328.000 H 147.000 V 331.000 H 153.000 V 328.000 H 159.000 V 331.000 H 165.000 V 328.000 H 171.000 V 331.000 H 177.000 V 328.000 H 183.000 V 331.000 H 189.000 V 328.000 H 195.000 V 331.000 H 201.000 V 328.000 H 207.000 V 331.000 H 213.000 V 328.000 H 219.000 V 331.000 H 225.000 V 328.000 H 231.000 V 331.000 H 237.000 V 328.000 H 243.000 V 331.000 H 249.000 V 328.000 H 255.000 V 331.000 H 263.000 H 266.000 V 328.000 V 317.000 H 263.000 V 311.000 H 266.000 V 305.000 H 263.000 V 299.000 H 266.000 V 293.000 H 263.000 V 287.000 H 266.000 V 281.000 H 263.000 V 275.000 H 266.000 V 269.000 H 263.000 V 263.000 H 266.000 V 257.000 H 263.000 V 251.000 H 266.000 V 245.000 H 263.000 V 239.000 H 266.000 V 228.000 V 225.000 H 263.000 H 255.000 V 228.000 H 249.000 V 225.000 H 243.000 V 228.000 H 237.000 V 225.000 H 231.000 V 228.000 H 225.000 V 225.000 H 219.000 V 228.000 H 213.000 V 225.000 H 207.000 V 228.000 H 201.000 V 225.000 H 195.000 V 228.000 H 189.000 V 225.000 H 183.000 V 228.000 H 177.000 V 225.000 H 171.000 V 228.000 H 165.000 V 225.000 H 159.000 V 228.000 H 153.000 V 225.000 H 147.000 V 228.000 H 141.000 V 225.000 H 135.000 V 228.000 H 129.000 V 225.000 H 123.000 V 228.000 H 117.000 V 225.000 H 111.000 V 228.000 H 105.000 V 225.000 H 99.000 V 228.000 H 93.000 V 225.000 H 87.000 V 228.000 H 81.000 V 225.000 H 75.000 V 228.000 H 69.000 V 225.000 H 63.000 V 228.000 H 57.000 V 225.000 H 51.000 V 228.000 H 45.000 V 225.000 H 39.000 V 228.000 H 33.000 V 225.000 H 27.000 V 228.000 H 21.000 V 225.000 H 13.000 H 10.000 V 228.000 V 239.000 H 13.000 V 245.000 H 10.000 V 251.000 H 13.000 V 257.000 H 10.000 V 263.000 H 13.000 V 269.000 H 10.000 V 275.000 H 13.000 V 281.000 H 10.000 V 287.000 H 13.000 V 293.000 H 10.000 V 299.000 H 13.000 V 305.000 H 10.000 V 311.000 H 13.000 V 317.000 H 10.000 V 328.000 V 331.000 H 13.000"
       stroke="rgb(0,0,0)"
       stroke-width="0.05"
       id="path2"
       style="stroke:#ff0000;stroke-opacity:1" /></g><g
     id="p-2"
     style="fill:none;stroke-linecap:round;stroke-linejoin:round;stroke:#ff0000;stroke-opacity:1"><path
       d="M 270.500 331.000 H 281.500 V 328.000 H 287.500 V 331.000 H 293.500 V 328.000 H 299.500 V 331.000 H 305.500 V 328.000 H 311.500 V 331.000 H 317.500 V 328.000 H 323.500 V 331.000 H 329.500 V 328.000 H 335.500 V 331.000 H 341.500 V 328.000 H 347.500 V 331.000 H 353.500 V 328.000 H 359.500 V 331.000 H 370.500 V 328.000 V 317.000 H 373.500 V 311.000 H 370.500 V 305.000 H 373.500 V 299.000 H 370.500 V 293.000 H 373.500 V 287.000 H 370.500 V 281.000 H 373.500 V 275.000 H 370.500 V 269.000 H 373.500 V 263.000 H 370.500 V 257.000 H 373.500 V 251.000 H 370.500 V 245.000 H 373.500 V 239.000 H 370.500 V 228.000 V 225.000 H 359.500 V 228.000 H 353.500 V 225.000 H 347.500 V 228.000 H 341.500 V 225.000 H 335.500 V 228.000 H 329.500 V 225.000 H 323.500 V 228.000 H 317.500 V 225.000 H 311.500 V 228.000 H 305.500 V 225.000 H 299.500 V 228.000 H 293.500 V 225.000 H 287.500 V 228.000 H 281.500 V 225.000 H 270.500 V 228.000 V 239.000 H 267.500 V 245.000 H 270.500 V 251.000 H 267.500 V 257.000 H 270.500 V 263.000 H 267.500 V 269.000 H 270.500 V 275.000 H 267.500 V 281.000 H 270.500 V 287.000 H 267.500 V 293.000 H 270.500 V 299.000 H 267.500 V 305.000 H 270.500 V 311.000 H 267.500 V 317.000 H 270.500 V 328.000 V 331.000"
       stroke="rgb(0,0,0)"
       stroke-width="0.05"
       id="path3"
       style="stroke:#ff0000;stroke-opacity:1" /></g><g
     id="p-3"
     style="fill:none;stroke:#ff0000;stroke-linecap:round;stroke-linejoin:round;stroke-opacity:1"
     transform="translate(0,0.74755185)"><path
       d="m 270.5,223.5 h 11 v -3 h 6 v 3 h 6 v -3 h 6 v 3 h 6 v -3 h 6 v 3 h 6 v -3 h 6 v 3 h 6 v -3 h 6 v 3 h 6 v -3 h 6 v 3 h 6 v -3 h 6 v 3 h 11 v -3 -11 h 3 v -6 h -3 v -6 h 3 v -6 h -3 v -6 h 3 v -6 h -3 v -6 h 3 v -6 h -3 v -6 h 3 v -6 h -3 v -6 h 3 v -6 h -3 v -6 h 3 v -6 h -3 v -11 -3 h -11 v 3 h -6 v -3 h -6 v 3 h -6 v -3 h -6 v 3 h -6 v -3 h -6 v 3 h -6 v -3 h -6 v 3 h -6 v -3 h -6 v 3 h -6 v -3 h -6 v 3 h -6 v -3 h -11 v 3 11 h -3 v 6 h 3 v 6 h -3 v 6 h 3 v 6 h -3 v 6 h 3 v 6 h -3 v 6 h 3 v 6 h -3 v 6 h 3 v 6 h -3 v 6 h 3 v 6 h -3 v 6 h 3 v 11 3"
       stroke="rgb(0,0,0)"
       stroke-width="0.05"
       id="path4"
       style="stroke:#ff0000;stroke-opacity:1" /></g><g
     id="p-4"
     style="fill:none;stroke-linecap:round;stroke-linejoin:round;stroke:#ff0000;stroke-opacity:1"><path
       d="M 13.000 223.500 H 21.000 V 220.500 H 27.000 V 223.500 H 33.000 V 220.500 H 39.000 V 223.500 H 45.000 V 220.500 H 51.000 V 223.500 H 57.000 V 220.500 H 63.000 V 223.500 H 69.000 V 220.500 H 75.000 V 223.500 H 81.000 V 220.500 H 87.000 V 223.500 H 93.000 V 220.500 H 99.000 V 223.500 H 105.000 V 220.500 H 111.000 V 223.500 H 117.000 V 220.500 H 123.000 V 223.500 H 129.000 V 220.500 H 135.000 V 223.500 H 141.000 V 220.500 H 147.000 V 223.500 H 153.000 V 220.500 H 159.000 V 223.500 H 165.000 V 220.500 H 171.000 V 223.500 H 177.000 V 220.500 H 183.000 V 223.500 H 189.000 V 220.500 H 195.000 V 223.500 H 201.000 V 220.500 H 207.000 V 223.500 H 213.000 V 220.500 H 219.000 V 223.500 H 225.000 V 220.500 H 231.000 V 223.500 H 237.000 V 220.500 H 243.000 V 223.500 H 249.000 V 220.500 H 255.000 V 223.500 H 263.000 H 266.000 V 220.500 V 209.500 H 263.000 V 203.500 H 266.000 V 197.500 H 263.000 V 191.500 H 266.000 V 185.500 H 263.000 V 179.500 H 266.000 V 173.500 H 263.000 V 167.500 H 266.000 V 161.500 H 263.000 V 155.500 H 266.000 V 149.500 H 263.000 V 143.500 H 266.000 V 137.500 H 263.000 V 131.500 H 266.000 V 120.500 V 117.500 H 263.000 H 255.000 V 120.500 H 249.000 V 117.500 H 243.000 V 120.500 H 237.000 V 117.500 H 231.000 V 120.500 H 225.000 V 117.500 H 219.000 V 120.500 H 213.000 V 117.500 H 207.000 V 120.500 H 201.000 V 117.500 H 195.000 V 120.500 H 189.000 V 117.500 H 183.000 V 120.500 H 177.000 V 117.500 H 171.000 V 120.500 H 165.000 V 117.500 H 159.000 V 120.500 H 153.000 V 117.500 H 147.000 V 120.500 H 141.000 V 117.500 H 135.000 V 120.500 H 129.000 V 117.500 H 123.000 V 120.500 H 117.000 V 117.500 H 111.000 V 120.500 H 105.000 V 117.500 H 99.000 V 120.500 H 93.000 V 117.500 H 87.000 V 120.500 H 81.000 V 117.500 H 75.000 V 120.500 H 69.000 V 117.500 H 63.000 V 120.500 H 57.000 V 117.500 H 51.000 V 120.500 H 45.000 V 117.500 H 39.000 V 120.500 H 33.000 V 117.500 H 27.000 V 120.500 H 21.000 V 117.500 H 13.000 H 10.000 V 120.500 V 131.500 H 13.000 V 137.500 H 10.000 V 143.500 H 13.000 V 149.500 H 10.000 V 155.500 H 13.000 V 161.500 H 10.000 V 167.500 H 13.000 V 173.500 H 10.000 V 179.500 H 13.000 V 185.500 H 10.000 V 191.500 H 13.000 V 197.500 H 10.000 V 203.500 H 13.000 V 209.500 H 10.000 V 220.500 V 223.500 H 13.000"
       stroke="rgb(0,0,0)"
       stroke-width="0.05"
       id="path5"
       style="stroke:#ff0000;stroke-opacity:1" /></g><g
     id="p-5"
     style="fill:none;stroke-linecap:round;stroke-linejoin:round;stroke:#ff0000;stroke-opacity:1"
     transform="translate(-10,-10)"><path
       d="m 13,113 h 8 v 3 h 6 v -3 h 6 v 3 h 6 v -3 h 6 v 3 h 6 v -3 h 6 v 3 h 6 v -3 h 6 v 3 h 6 v -3 h 6 v 3 h 6 v -3 h 6 v 3 h 6 v -3 h 6 v 3 h 6 v -3 h 6 v 3 h 6 v -3 h 6 v 3 h 6 v -3 h 6 v 3 h 6 v -3 h 6 v 3 h 6 v -3 h 6 v 3 h 6 v -3 h 6 v 3 h 6 v -3 h 6 v 3 h 6 v -3 h 6 v 3 h 6 v -3 h 6 v 3 h 6 v -3 h 6 v 3 h 6 v -3 h 6 v 3 h 6 v -3 h 6 v 3 h 6 v -3 h 8 v -11 h 3 v -6 h -3 v -6 h 3 v -6 h -3 v -6 h 3 v -6 h -3 v -6 h 3 v -6 h -3 v -6 h 3 v -6 h -3 v -6 h 3 v -6 h -3 v -6 h 3 v -6 h -3 V 13 h -8 v -3 h -6 v 3 h -6 v -3 h -6 v 3 h -6 v -3 h -6 v 3 h -6 v -3 h -6 v 3 h -6 v -3 h -6 v 3 h -6 v -3 h -6 v 3 h -6 v -3 h -6 v 3 h -6 v -3 h -6 v 3 h -6 v -3 h -6 v 3 h -6 v -3 h -6 v 3 h -6 v -3 h -6 v 3 h -6 v -3 h -6 v 3 h -6 v -3 h -6 v 3 h -6 v -3 h -6 v 3 h -6 v -3 h -6 v 3 h -6 v -3 h -6 v 3 h -6 v -3 h -6 v 3 h -6 v -3 h -6 v 3 h -6 v -3 h -6 v 3 h -6 v -3 h -6 v 3 h -8 v 11 h -3 v 6 h 3 v 6 h -3 v 6 h 3 v 6 h -3 v 6 h 3 v 6 h -3 v 6 h 3 v 6 h -3 v 6 h 3 v 6 h -3 v 6 h 3 v 6 h -3 v 6 h 3 v 11"
       stroke="#000000"
       stroke-width="0.05"
       id="path6"
       style="stroke:#ff0000;stroke-opacity:1" /></g><g
     id="p-6"
     style="fill:none;stroke-linecap:round;stroke-linejoin:round;stroke:#ff0000;stroke-opacity:1"><path
       d="M 270.500 113.000 H 278.500 V 116.000 H 284.500 V 113.000 H 290.500 V 116.000 H 296.500 V 113.000 H 302.500 V 116.000 H 308.500 V 113.000 H 314.500 V 116.000 H 320.500 V 113.000 H 326.500 V 116.000 H 332.500 V 113.000 H 338.500 V 116.000 H 344.500 V 113.000 H 350.500 V 116.000 H 356.500 V 113.000 H 362.500 V 116.000 H 368.500 V 113.000 H 374.500 V 116.000 H 380.500 V 113.000 H 386.500 V 116.000 H 392.500 V 113.000 H 398.500 V 116.000 H 404.500 V 113.000 H 410.500 V 116.000 H 416.500 V 113.000 H 422.500 V 116.000 H 428.500 V 113.000 H 434.500 V 116.000 H 440.500 V 113.000 H 446.500 V 116.000 H 452.500 V 113.000 H 458.500 V 116.000 H 464.500 V 113.000 H 470.500 V 116.000 H 476.500 V 113.000 H 482.500 V 116.000 H 488.500 V 113.000 H 494.500 V 116.000 H 500.500 V 113.000 H 506.500 V 116.000 H 512.500 V 113.000 H 520.500 V 102.000 H 523.500 V 96.000 H 520.500 V 90.000 H 523.500 V 84.000 H 520.500 V 78.000 H 523.500 V 72.000 H 520.500 V 66.000 H 523.500 V 60.000 H 520.500 V 54.000 H 523.500 V 48.000 H 520.500 V 42.000 H 523.500 V 36.000 H 520.500 V 30.000 H 523.500 V 24.000 H 520.500 V 13.000 H 512.500 V 10.000 H 506.500 V 13.000 H 500.500 V 10.000 H 494.500 V 13.000 H 488.500 V 10.000 H 482.500 V 13.000 H 476.500 V 10.000 H 470.500 V 13.000 H 464.500 V 10.000 H 458.500 V 13.000 H 452.500 V 10.000 H 446.500 V 13.000 H 440.500 V 10.000 H 434.500 V 13.000 H 428.500 V 10.000 H 422.500 V 13.000 H 416.500 V 10.000 H 410.500 V 13.000 H 404.500 V 10.000 H 398.500 V 13.000 H 392.500 V 10.000 H 386.500 V 13.000 H 380.500 V 10.000 H 374.500 V 13.000 H 368.500 V 10.000 H 362.500 V 13.000 H 356.500 V 10.000 H 350.500 V 13.000 H 344.500 V 10.000 H 338.500 V 13.000 H 332.500 V 10.000 H 326.500 V 13.000 H 320.500 V 10.000 H 314.500 V 13.000 H 308.500 V 10.000 H 302.500 V 13.000 H 296.500 V 10.000 H 290.500 V 13.000 H 284.500 V 10.000 H 278.500 V 13.000 H 270.500 V 24.000 H 267.500 V 30.000 H 270.500 V 36.000 H 267.500 V 42.000 H 270.500 V 48.000 H 267.500 V 54.000 H 270.500 V 60.000 H 267.500 V 66.000 H 270.500 V 72.000 H 267.500 V 78.000 H 270.500 V 84.000 H 267.500 V 90.000 H 270.500 V 96.000 H 267.500 V 102.000 H 270.500 V 113.000"
       stroke="rgb(0,0,0)"
       stroke-width="0.05"
       id="path7"
       style="stroke:#ff0000;stroke-opacity:1" /></g><rect
     style="fill:none;fill-opacity:0.40413;stroke:#00ff00;stroke-width:0.300135;stroke-opacity:1"
     id="rect7"
     width="66"
     height="66"
     x="95"
     y="20" /><rect
     style="fill:none;fill-opacity:0.40413;stroke:#ff0000;stroke-width:0.266667;stroke-opacity:1"
     id="rect8-4"
     width="40"
     height="40"
     x="108"
     y="33" /><rect
     style="fill:none;fill-opacity:0.40413;stroke:#ff0000;stroke-width:0.194242;stroke-opacity:1"
     id="rect8"
     width="98"
     height="38.5"
     x="89"
     y="258.75" /><rect
     style="fill:none;fill-opacity:0.40413;stroke-width:0.2;stroke:#ff0000;stroke-opacity:1"
     id="rect9"
     width="10"
     height="10"
     x="88"
     y="307.04047" /><rect
     style="fill:none;fill-opacity:0.40413;stroke:#ff0000;stroke-width:0.178885;stroke-opacity:1"
     id="rect10"
     width="23"
     height="12"
     x="295"
     y="295.5" /><rect
     style="fill:none;fill-opacity:0.40413;stroke:#ff0000;stroke-width:0.178885;stroke-opacity:1"
     id="rect10-4"
     width="23"
     height="12"
     x="295"
     y="188" /><text
     xml:space="preserve"
     style="font-size:89.2528px;text-align:start;writing-mode:lr-tb;direction:ltr;text-anchor:start;fill:#000000;fill-opacity:1;stroke-width:0.2;stroke:none;stroke-opacity:1"
     x="73.251106"
     y="204.45663"
     id="text8"><tspan
       sodipodi:role="line"
       id="tspan8"
       style="font-style:normal;font-variant:normal;font-weight:normal;font-stretch:normal;font-size:89.2528px;font-family:'SIEMENS_GOST Type A';-inkscape-font-specification:'SIEMENS_GOST Type A';stroke-width:0.2;stroke:none;stroke-opacity:1;fill:#000000;fill-opacity:1"
       x="73.251106"
       y="204.45663">BOB</tspan></text></svg>
