<?xml version="1.0" encoding="UTF-8" standalone="no"?>
<svg
   height="623.00mm"
   viewBox="0.0 0.0 221.50 623.00"
   width="221.50mm"
   version="1.1"
   id="svg6"
   sodipodi:docname="CorpsBob.svg"
   inkscape:version="1.3 (0e150ed6c4, 2023-07-21)"
   xml:space="preserve"
   xmlns:inkscape="http://www.inkscape.org/namespaces/inkscape"
   xmlns:sodipodi="http://sodipodi.sourceforge.net/DTD/sodipodi-0.dtd"
   xmlns="http://www.w3.org/2000/svg"
   xmlns:svg="http://www.w3.org/2000/svg"
   xmlns:rdf="http://www.w3.org/1999/02/22-rdf-syntax-ns#"
   xmlns:cc="http://creativecommons.org/ns#"
   xmlns:dc="http://purl.org/dc/elements/1.1/"><defs
     id="defs6" /><sodipodi:namedview
     id="namedview6"
     pagecolor="#ffffff"
     bordercolor="#000000"
     borderopacity="0.25"
     inkscape:showpageshadow="2"
     inkscape:pageopacity="0.0"
     inkscape:pagecheckerboard="0"
     inkscape:deskcolor="#d1d1d1"
     inkscape:document-units="mm"
     inkscape:zoom="1.7994146"
     inkscape:cx="-43.069562"
     inkscape:cy="1967.0286"
     inkscape:window-width="1680"
     inkscape:window-height="987"
     inkscape:window-x="-8"
     inkscape:window-y="-8"
     inkscape:window-maximized="1"
     inkscape:current-layer="svg6" /><!--
ClosedBox - Fully closed box


This box is more of a building block than a finished item.
Use a vector graphics program (like Inkscape) to add holes or adjust the base
plate.

See BasedBox for variant with a base.


Created with Boxes.py (https://boxes.hackerspace-bamberg.de/)
Creation date: 2025-02-18 15:38:52
Command line (remove spaces between dashes): boxes ClosedBox - -h=250 - -labels=0 - -reference=0 - -burn=0
Url: https://boxes.hackerspace-bamberg.de/ClosedBox?FingerJoint_style=rectangular&FingerJoint_surroundingspaces=2.0&FingerJoint_bottom_lip=0.0&FingerJoint_edge_width=1.0&FingerJoint_extra_length=0.0&FingerJoint_finger=2.0&FingerJoint_play=0.0&FingerJoint_space=2.0&FingerJoint_width=1.0&x=100&y=100&h=250&outside=0&outside=1&thickness=3.0&format=svg&tabs=0.0&qr_code=0&debug=0&labels=0&reference=0&inner_corners=loop&burn=0&language=fr&render=1
Url short: https://boxes.hackerspace-bamberg.de/ClosedBox?h=250&labels=0&reference=0&burn=0
SettingsUrl: https://boxes.hackerspace-bamberg.de/ClosedBox?FingerJoint_style=rectangular&FingerJoint_surroundingspaces=2.0&FingerJoint_bottom_lip=0.0&FingerJoint_edge_width=1.0&FingerJoint_extra_length=0.0&FingerJoint_finger=2.0&FingerJoint_play=0.0&FingerJoint_space=2.0&FingerJoint_width=1.0&x=100&y=100&h=250&outside=0&outside=1&thickness=3.0&format=svg&tabs=0.0&qr_code=0&debug=0&labels=0&reference=0&inner_corners=loop&burn=0&language=fr
SettingsUrl short: https://boxes.hackerspace-bamberg.de/ClosedBox?h=250&labels=0&reference=0&burn=0
--><title
     id="title1">ClosedBox</title><metadata
     id="metadata1"><rdf:RDF><cc:Work><dc:title>Box - ClosedBox</dc:title><dc:date>2025-02-18 15:38:52</dc:date><dc:source>https://boxes.hackerspace-bamberg.de/ClosedBox?FingerJoint_style=rectangular&amp;FingerJoint_surroundingspaces=2.0&amp;FingerJoint_bottom_lip=0.0&amp;FingerJoint_edge_width=1.0&amp;FingerJoint_extra_length=0.0&amp;FingerJoint_finger=2.0&amp;FingerJoint_play=0.0&amp;FingerJoint_space=2.0&amp;FingerJoint_width=1.0&amp;x=100&amp;y=100&amp;h=250&amp;outside=0&amp;outside=1&amp;thickness=3.0&amp;format=svg&amp;tabs=0.0&amp;qr_code=0&amp;debug=0&amp;labels=0&amp;reference=0&amp;inner_corners=loop&amp;burn=0&amp;language=fr&amp;render=1</dc:source><dc:source>https://boxes.hackerspace-bamberg.de/ClosedBox?h=250&amp;labels=0&amp;reference=0&amp;burn=0</dc:source><dc:description>Fully closed box&#10;&#10;This box is more of a building block than a finished item.&#10;Use a vector graphics program (like Inkscape) to add holes or adjust the base&#10;plate.&#10;&#10;See BasedBox for variant with a base.&#10;&#10;Created with Boxes.py (https://boxes.hackerspace-bamberg.de/)&#10;Command line: boxes ClosedBox --FingerJoint_style=rectangular --FingerJoint_surroundingspaces=2.0 --FingerJoint_bottom_lip=0.0 --FingerJoint_edge_width=1.0 --FingerJoint_extra_length=0.0 --FingerJoint_finger=2.0 --FingerJoint_play=0.0 --FingerJoint_space=2.0 --FingerJoint_width=1.0 --x=100 --y=100 --h=250 --outside=0 --outside=1 --thickness=3.0 --format=svg --tabs=0.0 --qr_code=0 --debug=0 --labels=0 --reference=0 --inner_corners=loop --burn=0&#10;Command line short: boxes ClosedBox --h=250 --labels=0 --reference=0 --burn=0&#10;Url: https://boxes.hackerspace-bamberg.de/ClosedBox?FingerJoint_style=rectangular&amp;FingerJoint_surroundingspaces=2.0&amp;FingerJoint_bottom_lip=0.0&amp;FingerJoint_edge_width=1.0&amp;FingerJoint_extra_length=0.0&amp;FingerJoint_finger=2.0&amp;FingerJoint_play=0.0&amp;FingerJoint_space=2.0&amp;FingerJoint_width=1.0&amp;x=100&amp;y=100&amp;h=250&amp;outside=0&amp;outside=1&amp;thickness=3.0&amp;format=svg&amp;tabs=0.0&amp;qr_code=0&amp;debug=0&amp;labels=0&amp;reference=0&amp;inner_corners=loop&amp;burn=0&amp;language=fr&amp;render=1&#10;Url short: https://boxes.hackerspace-bamberg.de/ClosedBox?h=250&amp;labels=0&amp;reference=0&amp;burn=0&#10;SettingsUrl: https://boxes.hackerspace-bamberg.de/ClosedBox?FingerJoint_style=rectangular&amp;FingerJoint_surroundingspaces=2.0&amp;FingerJoint_bottom_lip=0.0&amp;FingerJoint_edge_width=1.0&amp;FingerJoint_extra_length=0.0&amp;FingerJoint_finger=2.0&amp;FingerJoint_play=0.0&amp;FingerJoint_space=2.0&amp;FingerJoint_width=1.0&amp;x=100&amp;y=100&amp;h=250&amp;outside=0&amp;outside=1&amp;thickness=3.0&amp;format=svg&amp;tabs=0.0&amp;qr_code=0&amp;debug=0&amp;labels=0&amp;reference=0&amp;inner_corners=loop&amp;burn=0&amp;language=fr&#10;SettingsUrl short: https://boxes.hackerspace-bamberg.de/ClosedBox?h=250&amp;labels=0&amp;reference=0&amp;burn=0&#10;</dc:description></cc:Work></rdf:RDF></metadata><path
     d="m -190.75,213.75 v 8 h 3 v 6 h -3 v 6 h 3 v 6 h -3 v 6 h 3 v 6 h -3 v 6 h 3 v 6 h -3 v 6 h 3 v 6 h -3 v 6 h 3 v 6 h -3 v 6 h 3 v 6 h -3 v 8 3 h 3 11 v -3 h 6 v 3 h 6 v -3 h 6 v 3 h 6 v -3 h 6 v 3 h 6 v -3 h 6 v 3 h 6 v -3 h 6 v 3 h 6 v -3 h 6 v 3 h 6 v -3 h 6 v 3 h 6 v -3 h 6 v 3 h 6 v -3 h 6 v 3 h 6 v -3 h 6 v 3 h 6 v -3 h 6 v 3 h 6 v -3 h 6 v 3 h 6 v -3 h 6 v 3 h 6 v -3 h 6 v 3 h 6 v -3 h 6 v 3 h 6 v -3 h 6 v 3 h 6 v -3 h 6 v 3 h 6 v -3 h 6 v 3 h 6 v -3 h 6 v 3 h 11 3 v -3 -8 h -3 v -6 h 3 v -6 h -3 v -6 h 3 v -6 h -3 v -6 h 3 v -6 h -3 v -6 h 3 v -6 h -3 v -6 h 3 v -6 h -3 v -6 h 3 v -6 h -3 v -6 h 3 v -8 -3 h -3 -11 v 3 h -6 v -3 h -6 v 3 h -6 v -3 h -6 v 3 h -6 v -3 h -6 v 3 h -6 v -3 h -6 v 3 h -6 v -3 h -6 v 3 h -6 v -3 h -6 v 3 h -6 v -3 h -6 v 3 h -6 v -3 h -6 v 3 h -6 v -3 h -6 v 3 h -6 v -3 h -6 v 3 h -6 v -3 h -6 v 3 h -6 v -3 h -6 v 3 h -6 v -3 h -6 v 3 h -6 v -3 h -6 v 3 h -6 v -3 h -6 v 3 h -6 v -3 h -6 v 3 h -6 v -3 h -6 v 3 h -6 v -3 h -6 v 3 h -6 v -3 h -11 -3 z"
     stroke="#000000"
     stroke-width="0.05"
     id="path1"
     style="fill:none;stroke-linecap:round;stroke-linejoin:round" /><path
     d="m 59.25,310.75 v 8 h 3 v 6 h -3 v 6 h 3 v 6 h -3 v 6 h 3 v 6 h -3 v 6 h 3 v 6 h -3 v 6 h 3 v 6 h -3 v 6 h 3 v 6 h -3 v 6 h 3 v 6 h -3 v 8 h 3 11 v 3 h 6 v -3 h 6 v 3 h 6 v -3 h 6 v 3 h 6 v -3 h 6 v 3 h 6 v -3 h 6 v 3 h 6 v -3 h 6 v 3 h 6 v -3 h 6 v 3 h 6 v -3 h 6 v 3 h 6 v -3 h 6 v 3 h 6 v -3 h 6 v 3 h 6 v -3 h 6 v 3 h 6 v -3 h 6 v 3 h 6 v -3 h 6 v 3 h 6 v -3 h 6 v 3 h 6 v -3 h 6 v 3 h 6 v -3 h 6 v 3 h 6 v -3 h 6 v 3 h 6 v -3 h 6 v 3 h 6 v -3 h 6 v 3 h 6 v -3 h 11 3 v -8 h -3 v -6 h 3 v -6 h -3 v -6 h 3 v -6 h -3 v -6 h 3 v -6 h -3 v -6 h 3 v -6 h -3 v -6 h 3 v -6 h -3 v -6 h 3 v -6 h -3 v -6 h 3 v -8 h -3 -11 v -3 h -6 v 3 h -6 v -3 h -6 v 3 h -6 v -3 h -6 v 3 h -6 v -3 h -6 v 3 h -6 v -3 h -6 v 3 h -6 v -3 h -6 v 3 h -6 v -3 h -6 v 3 h -6 v -3 h -6 v 3 h -6 v -3 h -6 v 3 h -6 v -3 h -6 v 3 h -6 v -3 h -6 v 3 h -6 v -3 h -6 v 3 h -6 v -3 h -6 v 3 h -6 v -3 h -6 v 3 h -6 v -3 h -6 v 3 h -6 v -3 h -6 v 3 h -6 v -3 h -6 v 3 h -6 v -3 h -6 v 3 h -6 v -3 h -6 v 3 h -11 z"
     stroke="#000000"
     stroke-width="0.05"
     id="path3"
     style="fill:none;stroke-linecap:round;stroke-linejoin:round" /><path
     d="m 59.25,213.75 v 8 h 3 v 6 h -3 v 6 h 3 v 6 h -3 v 6 h 3 v 6 h -3 v 6 h 3 v 6 h -3 v 6 h 3 v 6 h -3 v 6 h 3 v 6 h -3 v 6 h 3 v 6 h -3 v 8 3 h 3 11 v -3 h 6 v 3 h 6 v -3 h 6 v 3 h 6 v -3 h 6 v 3 h 6 v -3 h 6 v 3 h 6 v -3 h 6 v 3 h 6 v -3 h 6 v 3 h 6 v -3 h 6 v 3 h 6 v -3 h 6 v 3 h 6 v -3 h 6 v 3 h 6 v -3 h 6 v 3 h 6 v -3 h 6 v 3 h 6 v -3 h 6 v 3 h 6 v -3 h 6 v 3 h 6 v -3 h 6 v 3 h 6 v -3 h 6 v 3 h 6 v -3 h 6 v 3 h 6 v -3 h 6 v 3 h 6 v -3 h 6 v 3 h 6 v -3 h 6 v 3 h 11 3 v -3 -8 h -3 v -6 h 3 v -6 h -3 v -6 h 3 v -6 h -3 v -6 h 3 v -6 h -3 v -6 h 3 v -6 h -3 v -6 h 3 v -6 h -3 v -6 h 3 v -6 h -3 v -6 h 3 v -8 -3 h -3 -11 v 3 h -6 v -3 h -6 v 3 h -6 v -3 h -6 v 3 h -6 v -3 h -6 v 3 h -6 v -3 h -6 v 3 h -6 v -3 h -6 v 3 h -6 v -3 h -6 v 3 h -6 v -3 h -6 v 3 h -6 v -3 h -6 v 3 h -6 v -3 h -6 v 3 h -6 v -3 h -6 v 3 h -6 v -3 h -6 v 3 h -6 v -3 h -6 v 3 h -6 v -3 h -6 v 3 h -6 v -3 h -6 v 3 h -6 v -3 h -6 v 3 h -6 v -3 h -6 v 3 h -6 v -3 h -6 v 3 h -6 v -3 h -6 v 3 h -6 v -3 h -11 -3 z"
     stroke="#000000"
     stroke-width="0.05"
     id="path4"
     style="fill:none;stroke-linecap:round;stroke-linejoin:round" /><path
     d="m -188.74212,410.75 v 8 h -3 v 6 h 3 v 6 h -3 v 6 h 3 v 6 h -3 v 6 h 3 v 6 h -3 v 6 h 3 v 6 h -3 v 6 h 3 v 6 h -3 v 6 h 3 v 6 h -3 v 6 h 3 v 8 h 8 v 3 h 6 v -3 h 6 v 3 h 6 v -3 h 6 v 3 h 6 v -3 h 6 v 3 h 6 v -3 h 6 v 3 h 6 v -3 h 6 v 3 h 6 v -3 h 6 v 3 h 6 v -3 h 8.000005 v -8 h 3 v -6 h -3 v -6 h 3 v -6 h -3 v -6 h 3 v -6 h -3 v -6 h 3 v -6 h -3 v -6 h 3 v -6 h -3 v -6 h 3 v -6 h -3 v -6 h 3 v -6 h -3 v -8 h -8.000005 v -3 h -6 v 3 h -6 v -3 h -6 v 3 h -6 v -3 h -6 v 3 h -6 v -3 h -6 v 3 h -6 v -3 h -6 v 3 h -6 v -3 h -6 v 3 h -6 v -3 h -6 v 3 z"
     stroke="#000000"
     stroke-width="0.05"
     id="path6"
     style="fill:none;stroke-linecap:round;stroke-linejoin:round" /><rect
     style="fill:none;fill-opacity:0.40413;stroke:#00ff00;stroke-width:0.300135;stroke-opacity:1"
     id="rect7"
     width="66"
     height="66"
     x="-98.75"
     y="227.75" /><rect
     style="fill:none;fill-opacity:0.40413;stroke:#ff0000;stroke-width:0.266667;stroke-opacity:1"
     id="rect8-4"
     width="40"
     height="40"
     x="-85.75"
     y="240.75" /><path
     d="m -190.75,310.75 v 8 h 3 v 6 h -3 v 6 h 3 v 6 h -3 v 6 h 3 v 6 h -3 v 6 h 3 v 6 h -3 v 6 h 3 v 6 h -3 v 6 h 3 v 6 h -3 v 6 h 3 v 6 h -3 v 8 h 3 11 v 3 h 6 v -3 h 6 v 3 h 6 v -3 h 6 v 3 h 6 v -3 h 6 v 3 h 6 v -3 h 6 v 3 h 6 v -3 h 6 v 3 h 6 v -3 h 6 v 3 h 6 v -3 h 6 v 3 h 6 v -3 h 6 v 3 h 6 v -3 h 6 v 3 h 6 v -3 h 6 v 3 h 6 v -3 h 6 v 3 h 6 v -3 h 6 v 3 h 6 v -3 h 6 v 3 h 6 v -3 h 6 v 3 h 6 v -3 h 6 v 3 h 6 v -3 h 6 v 3 h 6 v -3 h 6 v 3 h 6 v -3 h 6 v 3 h 6 v -3 h 11 3 v -8 h -3 v -6 h 3 v -6 h -3 v -6 h 3 v -6 h -3 v -6 h 3 v -6 h -3 v -6 h 3 v -6 h -3 v -6 h 3 v -6 h -3 v -6 h 3 v -6 h -3 v -6 h 3 v -8 h -3 -11 v -3 h -6 v 3 h -6 v -3 h -6 v 3 h -6 v -3 h -6 v 3 h -6 v -3 h -6 v 3 h -6 v -3 h -6 v 3 h -6 v -3 h -6 v 3 h -6 v -3 h -6 v 3 h -6 v -3 h -6 v 3 h -6 v -3 h -6 v 3 h -6 v -3 h -6 v 3 h -6 v -3 h -6 v 3 h -6 v -3 h -6 v 3 h -6 v -3 h -6 v 3 h -6 v -3 h -6 v 3 h -6 v -3 h -6 v 3 h -6 v -3 h -6 v 3 h -6 v -3 h -6 v 3 h -6 v -3 h -6 v 3 h -6 v -3 h -6 v 3 h -11 z"
     stroke="#000000"
     stroke-width="0.05"
     id="path2"
     style="fill:none;stroke-linecap:round;stroke-linejoin:round" /><rect
     style="fill:none;fill-opacity:0.40413;stroke:#ff0000;stroke-width:0.194242;stroke-opacity:1"
     id="rect8"
     width="98"
     height="38.5"
     x="-114.75"
     y="338.5" /><rect
     style="fill:none;fill-opacity:0.40413;stroke:#ff0000;stroke-width:0.2;stroke-opacity:1"
     id="rect9"
     width="3"
     height="10"
     x="111.75"
     y="387"
     transform="scale(-1,1)" /><rect
     style="fill:none;fill-opacity:0.40413;stroke:#ff0000;stroke-width:0.2;stroke-opacity:1"
     id="rect9-0"
     width="3"
     height="10"
     x="16.75"
     y="387"
     transform="scale(-1,1)" /><rect
     style="fill:none;fill-opacity:0.40413;stroke:#ff0000;stroke-width:0.178885;stroke-opacity:1"
     id="rect10"
     width="23"
     height="12"
     x="-164.2421"
     y="467.83881" /><path
     d="m -88.742115,410.75 v 8 h -3 v 6 h 3 v 6 h -3 v 6 h 3 v 6 h -3 v 6 h 3 v 6 h -3 v 6 h 3 v 6 h -3 v 6 h 3 v 6 h -3 v 6 h 3 v 6 h -3 v 6 h 3 v 8 h 7.999997 v 3 h 6 v -3 h 6 v 3 h 6 v -3 h 6 v 3 h 6 v -3 h 6 v 3 h 6 v -3 h 6 v 3 h 6 v -3 h 6 v 3 h 6.000002 v -3 h 6.0000005 v 3 h 6 v -3 h 8 v -8 h 3 v -6 h -3 v -6 h 3 v -6 h -3 v -6 h 3 v -6 h -3 v -6 h 3 v -6 h -3 v -6 h 3 v -6 h -3 v -6 h 3 v -6 h -3 v -6 h 3 v -6 h -3 v -8 h -8 v -3 h -6 v 3 h -6.0000005 v -3 h -6.000002 v 3 h -6 v -3 h -6 v 3 h -6 v -3 h -6 v 3 h -6 v -3 h -6 v 3 h -6 v -3 h -6 v 3 h -6 v -3 h -6 v 3 z"
     stroke="#000000"
     stroke-width="0.05"
     id="path6-5"
     style="fill:none;stroke-linecap:round;stroke-linejoin:round" /><rect
     style="fill:none;fill-opacity:0.40413;stroke:#ff0000;stroke-width:0.178885;stroke-opacity:1"
     id="rect10-7"
     width="23"
     height="12"
     x="-64.242119"
     y="467.83875" /><text
     xml:space="preserve"
     style="font-weight:bold;font-size:98.7528px;line-height:normal;font-family:'Courier New';-inkscape-font-specification:'Courier New Bold';text-align:center;text-decoration-color:#000000;text-anchor:middle;fill:none;stroke:#ff0000;stroke-width:0.2;paint-order:stroke fill markers"
     x="184.90096"
     y="386.9949"
     id="text6"><tspan
       sodipodi:role="line"
       id="tspan6"
       style="fill:#000000;fill-opacity:1;stroke:none;stroke-width:0.2"
       x="184.90096"
       y="386.9949">BOB</tspan></text><g
     id="p-2"
     style="fill:none;fill-opacity:0.40413;stroke:#ff0000;stroke-linecap:round;stroke-linejoin:round;stroke-opacity:1"
     transform="rotate(180,126.37894,344.875)"><path
       d="M 160.5,136 H 171 v -3 h 6 v 3 h 6 v -3 h 6 v 3 h 6 v -3 h 6 v 3 h 6 v -3 h 6 v 3 h 6 v -3 h 6 v 3 h 10.5 v -3 -4.5 h 3 v -6 h -3 V 118 115 H 225 v 3 h -6 v -3 h -6 v 3 h -6 v -3 h -6 v 3 h -6 v -3 h -6 v 3 h -6 v -3 h -6 v 3 h -6 v -3 h -10.5 v 3 4.5 h -3 v 6 h 3 v 4.5 3"
       stroke="rgb(0,0,0)"
       stroke-width="0.05"
       id="path3-7"
       style="fill:none;fill-opacity:0.40413;stroke:#ff0000;stroke-opacity:1" /></g><g
     id="g7"
     transform="rotate(-90,-63.473863,446.76825)"><g
       id="p-1"
       style="fill:none;fill-opacity:0.40413;stroke:#ff0000;stroke-linecap:round;stroke-linejoin:round;stroke-opacity:1"
       transform="translate(-180.45561,577.5)"><path
         d="m 13,136 h 7 v -3 h 6 v 3 h 6 v -3 h 6 v 3 h 6 v -3 h 6 v 3 h 6 v -3 h 6 v 3 h 6 v -3 h 6 v 3 h 6 v -3 h 6 v 3 h 6 v -3 h 6 v 3 h 6 v -3 h 6 v 3 h 6 v -3 h 6 v 3 h 6 v -3 h 6 v 3 h 6 v -3 h 6 v 3 h 7 3 v -3 -4.5 h -3 v -6 h 3 v -4.5 -3 h -3 -7 v 3 h -6 v -3 h -6 v 3 h -6 v -3 h -6 v 3 h -6 v -3 h -6 v 3 h -6 v -3 h -6 v 3 h -6 v -3 h -6 v 3 h -6 v -3 h -6 v 3 h -6 v -3 h -6 v 3 h -6 v -3 h -6 v 3 h -6 v -3 h -6 v 3 h -6 v -3 h -6 v 3 h -6 v -3 h -7 -3 v 3 4.5 h 3 v 6 h -3 v 4.5 3 h 3"
         stroke="rgb(0,0,0)"
         stroke-width="0.05"
         id="path2-6"
         style="fill:none;fill-opacity:0.40413;stroke:#ff0000;stroke-opacity:1" /></g><g
       id="p-4"
       style="fill:none;fill-opacity:0.40413;stroke:#ff0000;stroke-linecap:round;stroke-linejoin:round;stroke-opacity:1"
       transform="translate(-180.45561,504)"><path
         d="m 13,113.5 h 7 v -3 h 6 v 3 h 6 v -3 h 6 v 3 h 6 v -3 h 6 v 3 h 6 v -3 h 6 v 3 h 6 v -3 h 6 v 3 h 6 v -3 h 6 v 3 h 6 v -3 h 6 v 3 h 6 v -3 h 6 v 3 h 6 v -3 h 6 v 3 h 6 v -3 h 6 v 3 h 6 v -3 h 6 v 3 h 7 3 v -3 -4.5 h -3 v -6 h 3 v -4.5 -3 h -3 -7 v 3 h -6 v -3 h -6 v 3 h -6 v -3 h -6 v 3 h -6 v -3 h -6 v 3 h -6 v -3 h -6 v 3 h -6 v -3 h -6 v 3 h -6 v -3 h -6 v 3 h -6 v -3 h -6 v 3 h -6 v -3 h -6 v 3 h -6 v -3 h -6 v 3 h -6 v -3 h -6 v 3 h -6 v -3 h -7 -3 v 3 4.5 h 3 v 6 h -3 v 4.5 3 h 3"
         stroke="rgb(0,0,0)"
         stroke-width="0.05"
         id="path5"
         style="fill:none;fill-opacity:0.40413;stroke:#ff0000;stroke-opacity:1" /></g><g
       id="p-5"
       style="fill:none;fill-opacity:0.40413;stroke:#ff0000;stroke-linecap:round;stroke-linejoin:round;stroke-opacity:1"
       transform="translate(-180.45561,508.5)"><path
         d="m 13,88 h 7 v 3 h 6 v -3 h 6 v 3 h 6 v -3 h 6 v 3 h 6 v -3 h 6 v 3 h 6 v -3 h 6 v 3 h 6 v -3 h 6 v 3 h 6 v -3 h 6 v 3 h 6 v -3 h 6 v 3 h 6 v -3 h 6 v 3 h 6 v -3 h 6 v 3 h 6 v -3 h 6 v 3 h 6 v -3 h 7 V 77.5 h 3 v -6 h -3 v -6 h 3 v -6 h -3 v -6 h 3 v -6 h -3 v -6 h 3 v -6 h -3 v -6 h 3 v -6 h -3 V 13 h -7 v -3 h -6 v 3 h -6 v -3 h -6 v 3 h -6 v -3 h -6 v 3 h -6 v -3 h -6 v 3 h -6 v -3 h -6 v 3 h -6 v -3 h -6 v 3 h -6 v -3 h -6 v 3 h -6 v -3 h -6 v 3 h -6 v -3 h -6 v 3 h -6 v -3 h -6 v 3 h -6 v -3 h -6 v 3 h -7 v 10.5 h -3 v 6 h 3 v 6 h -3 v 6 h 3 v 6 h -3 v 6 h 3 v 6 h -3 v 6 h 3 v 6 h -3 v 6 h 3 V 88"
         stroke="rgb(0,0,0)"
         stroke-width="0.05"
         id="path6-4"
         style="fill:none;fill-opacity:0.40413;stroke:#ff0000;stroke-opacity:1" /></g><g
       id="p-6"
       style="fill:none;fill-opacity:0.40413;stroke:#ff0000;stroke-linecap:round;stroke-linejoin:round;stroke-opacity:1"
       transform="translate(-327.95561,604.5)"><path
         d="m 160.5,88 h 7 v 3 h 6 v -3 h 6 v 3 h 6 v -3 h 6 v 3 h 6 v -3 h 6 v 3 h 6 v -3 h 6 v 3 h 6 v -3 h 6 v 3 h 6 v -3 h 6 v 3 h 6 v -3 h 6 v 3 h 6 v -3 h 6 v 3 h 6 v -3 h 6 v 3 h 6 v -3 h 6 v 3 h 6 v -3 h 7 V 77.5 h 3 v -6 h -3 v -6 h 3 v -6 h -3 v -6 h 3 v -6 h -3 v -6 h 3 v -6 h -3 v -6 h 3 v -6 h -3 V 13 h -7 v -3 h -6 v 3 h -6 v -3 h -6 v 3 h -6 v -3 h -6 v 3 h -6 v -3 h -6 v 3 h -6 v -3 h -6 v 3 h -6 v -3 h -6 v 3 h -6 v -3 h -6 v 3 h -6 v -3 h -6 v 3 h -6 v -3 h -6 v 3 h -6 v -3 h -6 v 3 h -6 v -3 h -6 v 3 h -7 v 10.5 h -3 v 6 h 3 v 6 h -3 v 6 h 3 v 6 h -3 v 6 h 3 v 6 h -3 v 6 h 3 v 6 h -3 v 6 h 3 V 88"
         stroke="rgb(0,0,0)"
         stroke-width="0.05"
         id="path7"
         style="fill:none;fill-opacity:0.40413;stroke:#ff0000;stroke-opacity:1" /></g></g><g
     id="g8"
     transform="rotate(180,-22.082945,481.83937)"><g
       id="p-3"
       style="fill:none;fill-opacity:0.40413;stroke:#ff0000;stroke-linecap:round;stroke-linejoin:round;stroke-opacity:1"
       transform="translate(-180.45561,508.5)"><path
         d="M 160.5,113.5 H 171 v -3 h 6 v 3 h 6 v -3 h 6 v 3 h 6 v -3 h 6 v 3 h 6 v -3 h 6 v 3 h 6 v -3 h 6 v 3 h 10.5 v -3 -4.5 h 3 v -6 h -3 v -4.5 -3 H 225 v 3 h -6 v -3 h -6 v 3 h -6 v -3 h -6 v 3 h -6 v -3 h -6 v 3 h -6 v -3 h -6 v 3 h -6 v -3 h -10.5 v 3 4.5 h -3 v 6 h 3 v 4.5 3"
         stroke="rgb(0,0,0)"
         stroke-width="0.05"
         id="path4-8"
         style="fill:none;fill-opacity:0.40413;stroke:#ff0000;stroke-opacity:1" /></g><rect
       style="fill:none;fill-opacity:0.40413;stroke:#ff0000;stroke-width:0.2;stroke-opacity:1"
       id="rect7-4"
       width="60"
       height="11"
       x="-12.45561"
       y="606" /></g><g
     id="p-1-9"
     style="fill:none;stroke:#ff0000;stroke-linecap:round;stroke-linejoin:round;stroke-opacity:1"
     transform="rotate(90,-236.74606,261.00395)"><path
       d="m 13,211 h 9 v -3 h 6 v 3 h 6 v -3 h 6 v 3 h 6 v -3 h 6 v 3 h 6 v -3 h 6 v 3 h 9 3 v -3 -9 h -3 v -6 h 3 v -6 h -3 v -6 h 3 v -6 h -3 v -6 h 3 v -6 h -3 v -6 h 3 v -9 -3 h -3 -9 v 3 h -6 v -3 h -6 v 3 h -6 v -3 h -6 v 3 h -6 v -3 h -6 v 3 h -6 v -3 h -9 -3 v 3 9 h 3 v 6 h -3 v 6 h 3 v 6 h -3 v 6 h 3 v 6 h -3 v 6 h 3 v 6 h -3 v 9 3 h 3"
       stroke="rgb(0,0,0)"
       stroke-width="0.05"
       id="path2-0"
       style="fill:none;stroke:#ff0000;stroke-opacity:1" /></g><g
     id="p-4-0"
     style="fill:none;stroke:#ff0000;stroke-linecap:round;stroke-linejoin:round;stroke-opacity:1"
     transform="rotate(90,-207.49606,290.25395)"><path
       d="m 13,143.5 h 9 v -3 h 6 v 3 h 6 v -3 h 6 v 3 h 6 v -3 h 6 v 3 h 6 v -3 h 6 v 3 h 9 3 v -3 -9 h -3 v -6 h 3 v -6 h -3 v -6 h 3 v -6 h -3 v -6 h 3 v -6 h -3 v -6 h 3 v -9 -3 h -3 -9 v 3 h -6 v -3 h -6 v 3 h -6 v -3 h -6 v 3 h -6 v -3 h -6 v 3 h -6 v -3 h -9 -3 v 3 9 h 3 v 6 h -3 v 6 h 3 v 6 h -3 v 6 h 3 v 6 h -3 v 6 h 3 v 6 h -3 v 9 3 h 3"
       stroke="rgb(0,0,0)"
       stroke-width="0.05"
       id="path5-4"
       style="fill:none;stroke:#ff0000;stroke-opacity:1" /></g><g
     id="p-5-9"
     style="fill:none;stroke:#ff0000;stroke-linecap:round;stroke-linejoin:round;stroke-opacity:1"
     transform="rotate(90,-272.74606,225.00395)"><path
       d="m 13,73 h 9 v 3 h 6 v -3 h 6 v 3 h 6 v -3 h 6 v 3 h 6 v -3 h 6 v 3 h 6 v -3 h 9 v -9 h 3 v -6 h -3 v -6 h 3 v -6 h -3 v -6 h 3 v -6 h -3 v -6 h 3 v -6 h -3 v -9 h -9 v -3 h -6 v 3 h -6 v -3 h -6 v 3 h -6 v -3 h -6 v 3 h -6 v -3 h -6 v 3 h -9 v 9 h -3 v 6 h 3 v 6 h -3 v 6 h 3 v 6 h -3 v 6 h 3 v 6 h -3 v 6 h 3 v 9"
       stroke="rgb(0,0,0)"
       stroke-width="0.05"
       id="path6-8"
       style="fill:none;stroke:#ff0000;stroke-opacity:1" /></g><g
     id="g11"
     transform="rotate(90,123.7579,719.25)"><g
       id="p-2-9"
       style="fill:none;stroke:#ff0000;stroke-linecap:round;stroke-linejoin:round;stroke-opacity:1"
       transform="rotate(90,-235.99606,260.25395)"><path
         d="m 80.5,211 h 9 v -3 h 6 v 3 h 6 v -3 h 6 v 3 h 6 v -3 h 6 v 3 h 6 v -3 h 6 v 3 h 9 v -3 -9 h 3 v -6 h -3 v -6 h 3 v -6 h -3 v -6 h 3 v -6 h -3 v -6 h 3 v -6 h -3 v -9 -3 h -9 v 3 h -6 v -3 h -6 v 3 h -6 v -3 h -6 v 3 h -6 v -3 h -6 v 3 h -6 v -3 h -9 v 3 9 h -3 v 6 h 3 v 6 h -3 v 6 h 3 v 6 h -3 v 6 h 3 v 6 h -3 v 6 h 3 v 9 3"
         stroke="rgb(0,0,0)"
         stroke-width="0.05"
         id="path3-5"
         style="fill:none;stroke:#ff0000;stroke-opacity:1" /></g><g
       id="p-3-3"
       style="fill:none;stroke:#ff0000;stroke-linecap:round;stroke-linejoin:round;stroke-opacity:1"
       transform="rotate(90,-206.74606,289.50395)"><path
         d="m 80.5,143.5 h 9 v -3 h 6 v 3 h 6 v -3 h 6 v 3 h 6 v -3 h 6 v 3 h 6 v -3 h 6 v 3 h 9 v -3 -9 h 3 v -6 h -3 v -6 h 3 v -6 h -3 v -6 h 3 v -6 h -3 v -6 h 3 v -6 h -3 v -9 -3 h -9 v 3 h -6 v -3 h -6 v 3 h -6 v -3 h -6 v 3 h -6 v -3 h -6 v 3 h -6 v -3 h -9 v 3 9 h -3 v 6 h 3 v 6 h -3 v 6 h 3 v 6 h -3 v 6 h 3 v 6 h -3 v 6 h 3 v 9 3"
         stroke="rgb(0,0,0)"
         stroke-width="0.05"
         id="path4-5"
         style="fill:none;stroke:#ff0000;stroke-opacity:1" /></g><g
       id="p-6-8"
       style="fill:none;stroke:#ff0000;stroke-linecap:round;stroke-linejoin:round;stroke-opacity:1"
       transform="rotate(90,-271.99606,224.25395)"><path
         d="m 80.5,73 h 9 v 3 h 6 v -3 h 6 v 3 h 6 v -3 h 6 v 3 h 6 v -3 h 6 v 3 h 6 v -3 h 9 v -9 h 3 v -6 h -3 v -6 h 3 v -6 h -3 v -6 h 3 v -6 h -3 v -6 h 3 v -6 h -3 v -9 h -9 v -3 h -6 v 3 h -6 v -3 h -6 v 3 h -6 v -3 h -6 v 3 h -6 v -3 h -6 v 3 h -9 v 9 h -3 v 6 h 3 v 6 h -3 v 6 h 3 v 6 h -3 v 6 h 3 v 6 h -3 v 6 h 3 v 9"
         stroke="rgb(0,0,0)"
         stroke-width="0.05"
         id="path7-8"
         style="fill:none;stroke:#ff0000;stroke-opacity:1" /></g><rect
       style="fill:none;fill-opacity:0.40413;stroke:#ff0000;stroke-width:0.266667;stroke-opacity:1"
       id="rect8-7"
       width="40"
       height="40"
       x="586.75"
       y="70.742142"
       transform="rotate(90)" /></g><g
     id="g10"
     transform="rotate(90,-231.19187,255.54334)"
     style="fill:none;stroke:#ff0000;stroke-opacity:1"><circle
       style="fill:none;fill-opacity:0.40413;stroke:#ff0000;stroke-width:0.194906;stroke-opacity:1"
       id="path10"
       cx="43.014584"
       cy="178.09358"
       r="8" /><circle
       style="fill:none;fill-opacity:0.40413;stroke:#ff0000;stroke-width:0.194906;stroke-opacity:1"
       id="circle10"
       cx="65.014999"
       cy="178.09358"
       r="8" /></g><rect
     style="fill:none;fill-opacity:0.40413;stroke:#ff0000;stroke-width:0.2;stroke-opacity:1"
     id="rect10-4"
     width="3"
     height="10"
     x="510.75"
     y="1.7421098"
     transform="rotate(90)" /></svg>
