<?xml version='1.0' encoding='utf-8'?>
<svg height="221.00mm" viewBox="0.0 0.0 153.50 221.00" width="153.50mm" xmlns="http://www.w3.org/2000/svg" xmlns:cc="http://creativecommons.org/ns#" xmlns:dc="http://purl.org/dc/elements/1.1/" xmlns:inkscape="http://www.inkscape.org/namespaces/inkscape" xmlns:rdf="http://www.w3.org/1999/02/22-rdf-syntax-ns#" xmlns:svg="http://www.w3.org/2000/svg" xmlns:xlink="http://www.w3.org/1999/xlink">
<!--
ClosedBox - Fully closed box


This box is more of a building block than a finished item.
Use a vector graphics program (like Inkscape) to add holes or adjust the base
plate.

See BasedBox for variant with a base.


Created with Boxes.py (https://boxes.hackerspace-bamberg.de/)
Creation date: 2025-02-18 15:59:53
Command line (remove spaces between dashes): boxes ClosedBox - -x=66 - -y=66 - -h=66 - -labels=0 - -reference=0 - -burn=0
Url: https://boxes.hackerspace-bamberg.de/ClosedBox?FingerJoint_style=rectangular&FingerJoint_surroundingspaces=2.0&FingerJoint_bottom_lip=0.0&FingerJoint_edge_width=1.0&FingerJoint_extra_length=0.0&FingerJoint_finger=2.0&FingerJoint_play=0.0&FingerJoint_space=2.0&FingerJoint_width=1.0&x=66&y=66&h=66&outside=0&outside=1&thickness=3.0&format=svg&tabs=0.0&qr_code=0&debug=0&labels=0&reference=0&inner_corners=loop&burn=0&language=fr&render=2
Url short: https://boxes.hackerspace-bamberg.de/ClosedBox?x=66&y=66&h=66&labels=0&reference=0&burn=0
SettingsUrl: https://boxes.hackerspace-bamberg.de/ClosedBox?FingerJoint_style=rectangular&FingerJoint_surroundingspaces=2.0&FingerJoint_bottom_lip=0.0&FingerJoint_edge_width=1.0&FingerJoint_extra_length=0.0&FingerJoint_finger=2.0&FingerJoint_play=0.0&FingerJoint_space=2.0&FingerJoint_width=1.0&x=66&y=66&h=66&outside=0&outside=1&thickness=3.0&format=svg&tabs=0.0&qr_code=0&debug=0&labels=0&reference=0&inner_corners=loop&burn=0&language=fr&render=2
SettingsUrl short: https://boxes.hackerspace-bamberg.de/ClosedBox?x=66&y=66&h=66&labels=0&reference=0&burn=0
-->
<title>ClosedBox</title>
<metadata>
<rdf:RDF><cc:Work>
<dc:title>Box - ClosedBox</dc:title>
<dc:date>2025-02-18 15:59:53</dc:date>
<dc:source>https://boxes.hackerspace-bamberg.de/ClosedBox?FingerJoint_style=rectangular&amp;FingerJoint_surroundingspaces=2.0&amp;FingerJoint_bottom_lip=0.0&amp;FingerJoint_edge_width=1.0&amp;FingerJoint_extra_length=0.0&amp;FingerJoint_finger=2.0&amp;FingerJoint_play=0.0&amp;FingerJoint_space=2.0&amp;FingerJoint_width=1.0&amp;x=66&amp;y=66&amp;h=66&amp;outside=0&amp;outside=1&amp;thickness=3.0&amp;format=svg&amp;tabs=0.0&amp;qr_code=0&amp;debug=0&amp;labels=0&amp;reference=0&amp;inner_corners=loop&amp;burn=0&amp;language=fr&amp;render=2</dc:source>
<dc:source>https://boxes.hackerspace-bamberg.de/ClosedBox?x=66&amp;y=66&amp;h=66&amp;labels=0&amp;reference=0&amp;burn=0</dc:source>
<dc:description>Fully closed box

This box is more of a building block than a finished item.
Use a vector graphics program (like Inkscape) to add holes or adjust the base
plate.

See BasedBox for variant with a base.

Created with Boxes.py (https://boxes.hackerspace-bamberg.de/)
Command line: boxes ClosedBox --FingerJoint_style=rectangular --FingerJoint_surroundingspaces=2.0 --FingerJoint_bottom_lip=0.0 --FingerJoint_edge_width=1.0 --FingerJoint_extra_length=0.0 --FingerJoint_finger=2.0 --FingerJoint_play=0.0 --FingerJoint_space=2.0 --FingerJoint_width=1.0 --x=66 --y=66 --h=66 --outside=0 --outside=1 --thickness=3.0 --format=svg --tabs=0.0 --qr_code=0 --debug=0 --labels=0 --reference=0 --inner_corners=loop --burn=0
Command line short: boxes ClosedBox --x=66 --y=66 --h=66 --labels=0 --reference=0 --burn=0
Url: https://boxes.hackerspace-bamberg.de/ClosedBox?FingerJoint_style=rectangular&amp;FingerJoint_surroundingspaces=2.0&amp;FingerJoint_bottom_lip=0.0&amp;FingerJoint_edge_width=1.0&amp;FingerJoint_extra_length=0.0&amp;FingerJoint_finger=2.0&amp;FingerJoint_play=0.0&amp;FingerJoint_space=2.0&amp;FingerJoint_width=1.0&amp;x=66&amp;y=66&amp;h=66&amp;outside=0&amp;outside=1&amp;thickness=3.0&amp;format=svg&amp;tabs=0.0&amp;qr_code=0&amp;debug=0&amp;labels=0&amp;reference=0&amp;inner_corners=loop&amp;burn=0&amp;language=fr&amp;render=2
Url short: https://boxes.hackerspace-bamberg.de/ClosedBox?x=66&amp;y=66&amp;h=66&amp;labels=0&amp;reference=0&amp;burn=0
SettingsUrl: https://boxes.hackerspace-bamberg.de/ClosedBox?FingerJoint_style=rectangular&amp;FingerJoint_surroundingspaces=2.0&amp;FingerJoint_bottom_lip=0.0&amp;FingerJoint_edge_width=1.0&amp;FingerJoint_extra_length=0.0&amp;FingerJoint_finger=2.0&amp;FingerJoint_play=0.0&amp;FingerJoint_space=2.0&amp;FingerJoint_width=1.0&amp;x=66&amp;y=66&amp;h=66&amp;outside=0&amp;outside=1&amp;thickness=3.0&amp;format=svg&amp;tabs=0.0&amp;qr_code=0&amp;debug=0&amp;labels=0&amp;reference=0&amp;inner_corners=loop&amp;burn=0&amp;language=fr&amp;render=2
SettingsUrl short: https://boxes.hackerspace-bamberg.de/ClosedBox?x=66&amp;y=66&amp;h=66&amp;labels=0&amp;reference=0&amp;burn=0
</dc:description>
</cc:Work></rdf:RDF></metadata>
<g id="p-0" style="fill:none;stroke-linecap:round;stroke-linejoin:round;">
  <path d="M 13.000 211.000 H 22.000 V 208.000 H 28.000 V 211.000 H 34.000 V 208.000 H 40.000 V 211.000 H 46.000 V 208.000 H 52.000 V 211.000 H 58.000 V 208.000 H 64.000 V 211.000 H 73.000 H 76.000 V 208.000 V 199.000 H 73.000 V 193.000 H 76.000 V 187.000 H 73.000 V 181.000 H 76.000 V 175.000 H 73.000 V 169.000 H 76.000 V 163.000 H 73.000 V 157.000 H 76.000 V 148.000 V 145.000 H 73.000 H 64.000 V 148.000 H 58.000 V 145.000 H 52.000 V 148.000 H 46.000 V 145.000 H 40.000 V 148.000 H 34.000 V 145.000 H 28.000 V 148.000 H 22.000 V 145.000 H 13.000 H 10.000 V 148.000 V 157.000 H 13.000 V 163.000 H 10.000 V 169.000 H 13.000 V 175.000 H 10.000 V 181.000 H 13.000 V 187.000 H 10.000 V 193.000 H 13.000 V 199.000 H 10.000 V 208.000 V 211.000 H 13.000 Z" stroke="rgb(0,0,0)" stroke-width="0.05" />
</g>
<g id="p-1" style="fill:none;stroke-linecap:round;stroke-linejoin:round;">
  <path d="M 80.500 211.000 H 89.500 V 208.000 H 95.500 V 211.000 H 101.500 V 208.000 H 107.500 V 211.000 H 113.500 V 208.000 H 119.500 V 211.000 H 125.500 V 208.000 H 131.500 V 211.000 H 140.500 V 208.000 V 199.000 H 143.500 V 193.000 H 140.500 V 187.000 H 143.500 V 181.000 H 140.500 V 175.000 H 143.500 V 169.000 H 140.500 V 163.000 H 143.500 V 157.000 H 140.500 V 148.000 V 145.000 H 131.500 V 148.000 H 125.500 V 145.000 H 119.500 V 148.000 H 113.500 V 145.000 H 107.500 V 148.000 H 101.500 V 145.000 H 95.500 V 148.000 H 89.500 V 145.000 H 80.500 V 148.000 V 157.000 H 77.500 V 163.000 H 80.500 V 169.000 H 77.500 V 175.000 H 80.500 V 181.000 H 77.500 V 187.000 H 80.500 V 193.000 H 77.500 V 199.000 H 80.500 V 208.000 V 211.000 Z" stroke="rgb(0,0,0)" stroke-width="0.05" />
</g>
<g id="p-2" style="fill:none;stroke-linecap:round;stroke-linejoin:round;">
  <path d="M 80.500 143.500 H 89.500 V 140.500 H 95.500 V 143.500 H 101.500 V 140.500 H 107.500 V 143.500 H 113.500 V 140.500 H 119.500 V 143.500 H 125.500 V 140.500 H 131.500 V 143.500 H 140.500 V 140.500 V 131.500 H 143.500 V 125.500 H 140.500 V 119.500 H 143.500 V 113.500 H 140.500 V 107.500 H 143.500 V 101.500 H 140.500 V 95.500 H 143.500 V 89.500 H 140.500 V 80.500 V 77.500 H 131.500 V 80.500 H 125.500 V 77.500 H 119.500 V 80.500 H 113.500 V 77.500 H 107.500 V 80.500 H 101.500 V 77.500 H 95.500 V 80.500 H 89.500 V 77.500 H 80.500 V 80.500 V 89.500 H 77.500 V 95.500 H 80.500 V 101.500 H 77.500 V 107.500 H 80.500 V 113.500 H 77.500 V 119.500 H 80.500 V 125.500 H 77.500 V 131.500 H 80.500 V 140.500 V 143.500 Z" stroke="rgb(0,0,0)" stroke-width="0.05" />
</g>
<g id="p-3" style="fill:none;stroke-linecap:round;stroke-linejoin:round;">
  <path d="M 13.000 143.500 H 22.000 V 140.500 H 28.000 V 143.500 H 34.000 V 140.500 H 40.000 V 143.500 H 46.000 V 140.500 H 52.000 V 143.500 H 58.000 V 140.500 H 64.000 V 143.500 H 73.000 H 76.000 V 140.500 V 131.500 H 73.000 V 125.500 H 76.000 V 119.500 H 73.000 V 113.500 H 76.000 V 107.500 H 73.000 V 101.500 H 76.000 V 95.500 H 73.000 V 89.500 H 76.000 V 80.500 V 77.500 H 73.000 H 64.000 V 80.500 H 58.000 V 77.500 H 52.000 V 80.500 H 46.000 V 77.500 H 40.000 V 80.500 H 34.000 V 77.500 H 28.000 V 80.500 H 22.000 V 77.500 H 13.000 H 10.000 V 80.500 V 89.500 H 13.000 V 95.500 H 10.000 V 101.500 H 13.000 V 107.500 H 10.000 V 113.500 H 13.000 V 119.500 H 10.000 V 125.500 H 13.000 V 131.500 H 10.000 V 140.500 V 143.500 H 13.000 Z" stroke="rgb(0,0,0)" stroke-width="0.05" />
</g>
<g id="p-4" style="fill:none;stroke-linecap:round;stroke-linejoin:round;">
  <path d="M 13.000 73.000 H 22.000 V 76.000 H 28.000 V 73.000 H 34.000 V 76.000 H 40.000 V 73.000 H 46.000 V 76.000 H 52.000 V 73.000 H 58.000 V 76.000 H 64.000 V 73.000 H 73.000 V 64.000 H 76.000 V 58.000 H 73.000 V 52.000 H 76.000 V 46.000 H 73.000 V 40.000 H 76.000 V 34.000 H 73.000 V 28.000 H 76.000 V 22.000 H 73.000 V 13.000 H 64.000 V 10.000 H 58.000 V 13.000 H 52.000 V 10.000 H 46.000 V 13.000 H 40.000 V 10.000 H 34.000 V 13.000 H 28.000 V 10.000 H 22.000 V 13.000 H 13.000 V 22.000 H 10.000 V 28.000 H 13.000 V 34.000 H 10.000 V 40.000 H 13.000 V 46.000 H 10.000 V 52.000 H 13.000 V 58.000 H 10.000 V 64.000 H 13.000 V 73.000 Z" stroke="rgb(0,0,0)" stroke-width="0.05" />
</g>
<g id="p-5" style="fill:none;stroke-linecap:round;stroke-linejoin:round;">
  <path d="M 80.500 73.000 H 89.500 V 76.000 H 95.500 V 73.000 H 101.500 V 76.000 H 107.500 V 73.000 H 113.500 V 76.000 H 119.500 V 73.000 H 125.500 V 76.000 H 131.500 V 73.000 H 140.500 V 64.000 H 143.500 V 58.000 H 140.500 V 52.000 H 143.500 V 46.000 H 140.500 V 40.000 H 143.500 V 34.000 H 140.500 V 28.000 H 143.500 V 22.000 H 140.500 V 13.000 H 131.500 V 10.000 H 125.500 V 13.000 H 119.500 V 10.000 H 113.500 V 13.000 H 107.500 V 10.000 H 101.500 V 13.000 H 95.500 V 10.000 H 89.500 V 13.000 H 80.500 V 22.000 H 77.500 V 28.000 H 80.500 V 34.000 H 77.500 V 40.000 H 80.500 V 46.000 H 77.500 V 52.000 H 80.500 V 58.000 H 77.500 V 64.000 H 80.500 V 73.000 Z" stroke="rgb(0,0,0)" stroke-width="0.05" />
</g>
</svg>