<?xml version="1.0" encoding="UTF-8" standalone="no"?>
<svg
   height="354.50mm"
   viewBox="0.0 0.0 471.50 354.50"
   width="471.50mm"
   version="1.1"
   id="svg7"
   sodipodi:docname="ClosedBox(2).svg"
   inkscape:version="1.3 (0e150ed6c4, 2023-07-21)"
   xmlns:inkscape="http://www.inkscape.org/namespaces/inkscape"
   xmlns:sodipodi="http://sodipodi.sourceforge.net/DTD/sodipodi-0.dtd"
   xmlns="http://www.w3.org/2000/svg"
   xmlns:svg="http://www.w3.org/2000/svg"
   xmlns:rdf="http://www.w3.org/1999/02/22-rdf-syntax-ns#"
   xmlns:cc="http://creativecommons.org/ns#"
   xmlns:dc="http://purl.org/dc/elements/1.1/">
  <defs
     id="defs7" />
  <sodipodi:namedview
     id="namedview7"
     pagecolor="#ffffff"
     bordercolor="#000000"
     borderopacity="0.25"
     inkscape:showpageshadow="2"
     inkscape:pageopacity="0.0"
     inkscape:pagecheckerboard="0"
     inkscape:deskcolor="#d1d1d1"
     inkscape:document-units="mm"
     showguides="true"
     inkscape:zoom="0.86657149"
     inkscape:cx="883.94322"
     inkscape:cy="671.03523"
     inkscape:window-width="1920"
     inkscape:window-height="1017"
     inkscape:window-x="-8"
     inkscape:window-y="-8"
     inkscape:window-maximized="1"
     inkscape:current-layer="svg7">
    <sodipodi:guide
       position="167,237.5"
       orientation="1,0"
       id="guide7"
       inkscape:locked="false" />
  </sodipodi:namedview>
  <!--
ClosedBox - Fully closed box


This box is more of a building block than a finished item.
Use a vector graphics program (like Inkscape) to add holes or adjust the base
plate.

See BasedBox for variant with a base.


Created with Boxes.py (https://boxes.hackerspace-bamberg.de/)
Creation date: 2025-02-18 13:43:53
Command line (remove spaces between dashes): boxes ClosedBox - -x=225 - -y=120 - -burn=0
Url: https://boxes.hackerspace-bamberg.de/ClosedBox?FingerJoint_style=rectangular&FingerJoint_surroundingspaces=2.0&FingerJoint_bottom_lip=0.0&FingerJoint_edge_width=1.0&FingerJoint_extra_length=0.0&FingerJoint_finger=2.0&FingerJoint_play=0.0&FingerJoint_space=2.0&FingerJoint_width=1.0&x=225&y=120&h=100&outside=0&outside=1&thickness=3.0&format=svg&tabs=0.0&qr_code=0&debug=0&labels=0&labels=1&reference=100.0&inner_corners=loop&burn=0&language=fr&render=2
Url short: https://boxes.hackerspace-bamberg.de/ClosedBox?x=225&y=120&burn=0
SettingsUrl: https://boxes.hackerspace-bamberg.de/ClosedBox?FingerJoint_style=rectangular&FingerJoint_surroundingspaces=2.0&FingerJoint_bottom_lip=0.0&FingerJoint_edge_width=1.0&FingerJoint_extra_length=0.0&FingerJoint_finger=2.0&FingerJoint_play=0.0&FingerJoint_space=2.0&FingerJoint_width=1.0&x=225&y=120&h=100&outside=0&outside=1&thickness=3.0&format=svg&tabs=0.0&qr_code=0&debug=0&labels=0&labels=1&reference=100.0&inner_corners=loop&burn=0&language=fr&render=2
SettingsUrl short: https://boxes.hackerspace-bamberg.de/ClosedBox?x=225&y=120&burn=0
-->
  <title
     id="title1">ClosedBox</title>
  <metadata
     id="metadata1">
    <rdf:RDF>
      <cc:Work>
        <dc:title>Box - ClosedBox</dc:title>
        <dc:date>2025-02-18 13:43:53</dc:date>
        <dc:source>https://boxes.hackerspace-bamberg.de/ClosedBox?FingerJoint_style=rectangular&amp;FingerJoint_surroundingspaces=2.0&amp;FingerJoint_bottom_lip=0.0&amp;FingerJoint_edge_width=1.0&amp;FingerJoint_extra_length=0.0&amp;FingerJoint_finger=2.0&amp;FingerJoint_play=0.0&amp;FingerJoint_space=2.0&amp;FingerJoint_width=1.0&amp;x=225&amp;y=120&amp;h=100&amp;outside=0&amp;outside=1&amp;thickness=3.0&amp;format=svg&amp;tabs=0.0&amp;qr_code=0&amp;debug=0&amp;labels=0&amp;labels=1&amp;reference=100.0&amp;inner_corners=loop&amp;burn=0&amp;language=fr&amp;render=2</dc:source>
        <dc:source>https://boxes.hackerspace-bamberg.de/ClosedBox?x=225&amp;y=120&amp;burn=0</dc:source>
        <dc:description>Fully closed box&#10;&#10;This box is more of a building block than a finished item.&#10;Use a vector graphics program (like Inkscape) to add holes or adjust the base&#10;plate.&#10;&#10;See BasedBox for variant with a base.&#10;&#10;Created with Boxes.py (https://boxes.hackerspace-bamberg.de/)&#10;Command line: boxes ClosedBox --FingerJoint_style=rectangular --FingerJoint_surroundingspaces=2.0 --FingerJoint_bottom_lip=0.0 --FingerJoint_edge_width=1.0 --FingerJoint_extra_length=0.0 --FingerJoint_finger=2.0 --FingerJoint_play=0.0 --FingerJoint_space=2.0 --FingerJoint_width=1.0 --x=225 --y=120 --h=100 --outside=0 --outside=1 --thickness=3.0 --format=svg --tabs=0.0 --qr_code=0 --debug=0 --labels=0 --labels=1 --reference=100.0 --inner_corners=loop --burn=0&#10;Command line short: boxes ClosedBox --x=225 --y=120 --burn=0&#10;Url: https://boxes.hackerspace-bamberg.de/ClosedBox?FingerJoint_style=rectangular&amp;FingerJoint_surroundingspaces=2.0&amp;FingerJoint_bottom_lip=0.0&amp;FingerJoint_edge_width=1.0&amp;FingerJoint_extra_length=0.0&amp;FingerJoint_finger=2.0&amp;FingerJoint_play=0.0&amp;FingerJoint_space=2.0&amp;FingerJoint_width=1.0&amp;x=225&amp;y=120&amp;h=100&amp;outside=0&amp;outside=1&amp;thickness=3.0&amp;format=svg&amp;tabs=0.0&amp;qr_code=0&amp;debug=0&amp;labels=0&amp;labels=1&amp;reference=100.0&amp;inner_corners=loop&amp;burn=0&amp;language=fr&amp;render=2&#10;Url short: https://boxes.hackerspace-bamberg.de/ClosedBox?x=225&amp;y=120&amp;burn=0&#10;SettingsUrl: https://boxes.hackerspace-bamberg.de/ClosedBox?FingerJoint_style=rectangular&amp;FingerJoint_surroundingspaces=2.0&amp;FingerJoint_bottom_lip=0.0&amp;FingerJoint_edge_width=1.0&amp;FingerJoint_extra_length=0.0&amp;FingerJoint_finger=2.0&amp;FingerJoint_play=0.0&amp;FingerJoint_space=2.0&amp;FingerJoint_width=1.0&amp;x=225&amp;y=120&amp;h=100&amp;outside=0&amp;outside=1&amp;thickness=3.0&amp;format=svg&amp;tabs=0.0&amp;qr_code=0&amp;debug=0&amp;labels=0&amp;labels=1&amp;reference=100.0&amp;inner_corners=loop&amp;burn=0&amp;language=fr&amp;render=2&#10;SettingsUrl short: https://boxes.hackerspace-bamberg.de/ClosedBox?x=225&amp;y=120&amp;burn=0&#10;</dc:description>
      </cc:Work>
    </rdf:RDF>
  </metadata>
  <path
     d="m 13,333 h 10.5 v -3 h 6 v 3 h 6 v -3 h 6 v 3 h 6 v -3 h 6 v 3 h 6 v -3 h 6 v 3 h 6 v -3 h 6 v 3 h 6 v -3 h 6 v 3 h 6 v -3 h 6 v 3 h 6 v -3 h 6 v 3 h 6 v -3 h 6 v 3 h 6 v -3 h 6 v 3 h 6 v -3 h 6 v 3 h 6 v -3 h 6 v 3 h 6 v -3 h 6 v 3 h 6 v -3 h 6 v 3 h 6 v -3 h 6 v 3 h 6 v -3 h 6 v 3 h 6 v -3 h 6 v 3 h 10.5 3 v -3 -8 h -3 v -6 h 3 v -6 h -3 v -6 h 3 v -6 h -3 v -6 h 3 v -6 h -3 v -6 h 3 v -6 h -3 v -6 h 3 v -6 h -3 v -6 h 3 v -6 h -3 v -6 h 3 v -8 -3 h -3 -10.5 v 3 h -6 v -3 h -6 v 3 h -6 v -3 h -6 v 3 h -6 v -3 h -6 v 3 h -6 v -3 h -6 v 3 h -6 v -3 h -6 v 3 h -6 v -3 h -6 v 3 h -6 v -3 h -6 v 3 h -6 v -3 h -6 v 3 h -6 v -3 h -6 v 3 h -6 v -3 h -6 v 3 h -6 v -3 h -6 v 3 h -6 v -3 h -6 v 3 h -6 v -3 h -6 v 3 h -6 v -3 h -6 v 3 h -6 v -3 h -6 v 3 h -6 v -3 h -6 v 3 h -6 v -3 H 13 10 v 3 8 h 3 v 6 h -3 v 6 h 3 v 6 h -3 v 6 h 3 v 6 h -3 v 6 h 3 v 6 h -3 v 6 h 3 v 6 h -3 v 6 h 3 v 6 h -3 v 6 h 3 v 6 h -3 v 8 3 h 3"
     stroke="#000000"
     stroke-width="0.05"
     id="path2"
     style="fill:#860000;stroke-linecap:round;stroke-linejoin:round;stroke:none;fill-opacity:1" />
  <path
     d="m 239.5,333 h 6 v -3 h 6 v 3 h 6 v -3 h 6 v 3 h 6 v -3 h 6 v 3 h 6 v -3 h 6 v 3 h 6 v -3 h 6 v 3 h 6 v -3 h 6 v 3 h 6 v -3 h 6 v 3 h 6 v -3 h 6 v 3 h 6 v -3 h 6 v 3 h 6 v -3 -8 h 3 v -6 h -3 v -6 h 3 v -6 h -3 v -6 h 3 v -6 h -3 v -6 h 3 v -6 h -3 v -6 h 3 v -6 h -3 v -6 h 3 v -6 h -3 v -6 h 3 v -6 h -3 v -8 -3 h -6 v 3 h -6 v -3 h -6 v 3 h -6 v -3 h -6 v 3 h -6 v -3 h -6 v 3 h -6 v -3 h -6 v 3 h -6 v -3 h -6 v 3 h -6 v -3 h -6 v 3 h -6 v -3 h -6 v 3 h -6 v -3 h -6 v 3 h -6 v -3 h -6 v 3 8 h -3 v 6 h 3 v 6 h -3 v 6 h 3 v 6 h -3 v 6 h 3 v 6 h -3 v 6 h 3 v 6 h -3 v 6 h 3 v 6 h -3 v 6 h 3 v 6 h -3 v 6 h 3 v 8 3"
     stroke="#000000"
     stroke-width="0.05"
     id="path3"
     style="fill:#860000;stroke-linecap:round;stroke-linejoin:round;stroke:none;fill-opacity:1" />
  <path
     d="m 343.27452,151 h -6 v 3 h -6 v -3 h -6 v 3 h -6 v -3 h -6 v 3 h -6 v -3 h -6 v 3 h -6 v -3 h -6 v 3 h -6 v -3 h -6 v 3 h -6 v -3 h -6 v 3 h -6 v -3 h -6 v 3 h -6 v -3 h -6 v 3 h -6 v -3 h -6 v 3 10.13333 h -3 v 6 h 3 v 6 h -3 v 6 h 3 v 6 l -3,-0.13333 v 6 h 3 v 6 h -3 v 6 h 3 v 8 3 h 6 v -3 h 6 v 3 h 6 v -3 h 6 v 3 h 6 v -3 h 6 v 3 h 6 v -3 h 6 v 3 h 6 v -3 h 6 v 3 h 6 v -3 h 6 v 3 h 6 v -3 h 6 v 3 h 6 v -3 h 6 v 3 h 6 v -3 h 6 v 3 h 6 v -3 -8 h 3 v -6 h -3 v -6 h 3 v -6 h -3 v -6 h 3 v -6 h -3 v -6 h 3 v -6 h -3 v -10 -3"
     stroke="#000000"
     stroke-width="0.05"
     id="path4"
     style="fill:#860000;fill-opacity:1;stroke:none;stroke-linecap:round;stroke-linejoin:round"
     sodipodi:nodetypes="ccccccccccccccccccccccccccccccccccccccccccccccccccccccccccccccccccccccccccccccccccccccccccccccccccccccccccccccccc" />
  <path
     d="m 3,217 h 10.5 v -3 h 6 v 3 h 6 v -3 h 6 v 3 h 6 v -3 h 6 v 3 h 6 v -3 h 6 v 3 h 6 v -3 h 6 v 3 h 6 v -3 h 6 v 3 h 6 v -3 h 6 v 3 h 6 v -3 h 6.00001 v 3 h 6 v -3 h 6 v 3 h 6 v -3 h 6 v 3 h 6 v -3 h 6 v 3 h 6 v -3 h 6 v 3 h 6 v -3 h 6 v 3 h 6 v -3 h 6 v 3 h 6 v -3 h 6 v 3 h 6 v -3 h 6 v 3 h 6 v -3 h 6 v 3 h 10.5 3 v -3 -8 h -3 v -6 h 3 v -6 h -3 v -6 h 3 v -6 h -3 v -6 h 3 v -6 h -3 v -6 h 3 v -10 -3 h -3 -10.5 v 3 h -6 v -3 h -6 v 3 h -6 v -3 h -6 v 3 h -6 v -3 h -6 v 3 H 167 l -9.49999,-34 v -3 h -6 v 3 h -6 v -3 h -6 v 3 h -6 v -3 h -6 v 3 h -6 v -3 h -6 v 3 h -6 v -3 h -6 v 3 H 97.5 v -3 h -6 v 3 h -6 v -3 h -6 v 3 h -6 v -3 h -6 v 3 h -6 v -3 h -6 v 3 h -6 v -3 h -6 v 3 h -6 v -3 h -6 v 3 h -6 v -3 h -6 v 3 h -6 v -3 H 3 0 v 3 8 h 3 v 6 H 0 v 6 h 3 v 6 H 0 v 6 h 3 v 6 H 0 v 6 h 3 v 6 H 0 v 6 h 3 v 6 H 0 v 6 h 3 v 6 H 0 v 6 h 3 v 6 H 0 v 8 3 h 3"
     stroke="#000000"
     stroke-width="0.05"
     id="path5"
     style="fill:#860000;fill-opacity:1;stroke:none;stroke-linecap:round;stroke-linejoin:round"
     sodipodi:nodetypes="cccccccccccccccccccccccccccccccccccccccccccccccccccccccccccccccccccccccccccccccccccccccccccccccccccccccccccccccccccccccccccccccccccccccccccccccccccccccccccccccccccccccccccccccccccccccccccccc" />
  <path
     d="m 3,117 h 10.5 v 3 h 6 v -3 h 6 v 3 h 6 v -3 h 6 v 3 h 6 v -3 h 6 v 3 h 6 v -3 h 6 v 3 h 6 v -3 h 6 v 3 h 6 v -3 h 6 v 3 h 6 v -3 h 6 v 3 h 6 v -3 h 6 v 3 h 6 v -3 h 6 v 3 h 6 v -3 h 6 v 3 h 6 v -3 h 6 v 3 h 6 v -3 h 6 v 3 h 6 v -3 h 6 v 3 h 6 v -3 h 6 v 3 h 6 v -3 h 6 v 3 h 6 v -3 h 6 v 3 h 6 v -3 H 222 v -6 h 3 v -6 h -3 v -6 h 3 v -6 h -3 v -6 h 3 v -6 h -3 v -6 h 3 v -6 h -3 v -6 h 3 v -6 h -3 v -6 h 3 v -6 h -3 v -6 h 3 v -6 h -3 v -6 h 3 v -6 h -3 v -6 h 3 V 9 h -3 V 3 H 211.5 V 0 h -6 v 3 h -6 V 0 h -6 v 3 h -6 V 0 h -6 v 3 h -6 V 0 h -6 v 3 h -6 V 0 h -6 v 3 h -6 V 0 h -6 v 3 h -6 V 0 h -6 v 3 h -6 V 0 h -6 v 3 h -6 V 0 h -6 v 3 h -6 V 0 h -6 v 3 h -6 V 0 h -6 v 3 h -6 V 0 h -6 v 3 h -6 V 0 h -6 v 3 h -6 V 0 h -6 v 3 h -6 V 0 h -6 v 3 h -6 V 0 h -6 v 3 h -6 V 0 h -6 V 3 H 3 V 9 H 0 v 6 h 3 v 6 H 0 v 6 h 3 v 6 H 0 v 6 h 3 v 6 H 0 v 6 h 3 v 6 H 0 v 6 h 3 v 6 H 0 v 6 h 3 v 6 H 0 v 6 h 3 v 6 H 0 v 6 h 3 v 6 H 0 v 6 h 3 v 6"
     stroke="#000000"
     stroke-width="0.05"
     id="path6"
     style="fill:#860000;fill-opacity:1;stroke:none;stroke-linecap:round;stroke-linejoin:round" />
  <path
     d="M 239.5,127 H 250 v 3 h 6 v -3 h 6 v 3 h 6 v -3 h 6 v 3 h 6 v -3 h 6 v 3 h 6 v -3 h 6 v 3 h 6 v -3 h 6 v 3 h 6 v -3 h 6 v 3 h 6 v -3 h 6 v 3 h 6 v -3 h 6 v 3 h 6 v -3 h 6 v 3 h 6 v -3 h 6 v 3 h 6 v -3 h 6 v 3 h 6 v -3 h 6 v 3 h 6 v -3 h 6 v 3 h 6 v -3 h 6 v 3 h 6 v -3 h 6 v 3 h 6 v -3 h 6 v 3 h 6 v -3 h 10.5 v -6 h 3 v -6 h -3 v -6 h 3 v -6 h -3 v -6 h 3 v -6 h -3 v -6 h 3 v -6 h -3 v -6 h 3 v -6 h -3 v -6 h 3 v -6 h -3 v -6 h 3 v -6 h -3 v -6 h 3 v -6 h -3 v -6 h 3 v -6 h -3 V 13 H 448 v -3 h -6 v 3 h -6 v -3 h -6 v 3 h -6 v -3 h -6 v 3 h -6 v -3 h -6 v 3 h -6 v -3 h -6 v 3 h -6 v -3 h -6 v 3 h -6 v -3 h -6 v 3 h -6 v -3 h -6 v 3 h -6 v -3 h -6 v 3 h -6 v -3 h -6 v 3 h -6 v -3 h -6 v 3 h -6 v -3 h -6 v 3 h -6 v -3 h -6 v 3 h -6 v -3 h -6 v 3 h -6 v -3 h -6 v 3 h -6 v -3 h -6 v 3 h -6 v -3 h -6 v 3 h -10.5 v 6 h -3 v 6 h 3 v 6 h -3 v 6 h 3 v 6 h -3 v 6 h 3 v 6 h -3 v 6 h 3 v 6 h -3 v 6 h 3 v 6 h -3 v 6 h 3 v 6 h -3 v 6 h 3 v 6 h -3 v 6 h 3 v 6 h -3 v 6 h 3 v 6"
     stroke="#000000"
     stroke-width="0.05"
     id="path7"
     style="fill:#860000;stroke-linecap:round;stroke-linejoin:round;stroke:none;fill-opacity:1" />
  <rect
     style="fill:#869f00;fill-opacity:1;stroke:none;stroke-width:0.211517"
     id="rect7"
     width="154.5"
     height="113.63226"
     x="3"
     y="3.183871" />
  <rect
     style="fill:#869f00;fill-opacity:1;stroke:none;stroke-width:0.19238"
     id="rect7-4"
     width="154.5"
     height="94"
     x="3"
     y="120" />
  <rect
     style="fill:#869f00;fill-opacity:1;stroke:none;stroke-width:0.126405"
     id="rect7-7"
     width="55"
     height="114"
     x="167"
     y="3" />
  <rect
     style="fill:#869f00;fill-opacity:1;stroke:none;stroke-width:0.0917042"
     id="rect7-7-5"
     width="55"
     height="60"
     x="167"
     y="154" />
  <rect
     style="fill:#869f00;fill-opacity:1;stroke:none;stroke-width:0.0917042"
     id="rect7-7-5-5"
     width="55"
     height="60"
     x="229.27454"
     y="154" />
  <g
     id="g9"
     transform="translate(117.13642,224.5)">
    <rect
       style="fill:#869f00;fill-opacity:1;stroke:none;stroke-width:0.2"
       id="rect8"
       width="184.5"
       height="114"
       x="274"
       y="13" />
    <rect
       style="fill:#869f00;fill-opacity:1;stroke:none;stroke-width:0.191086"
       id="rect9"
       width="160"
       height="120"
       x="286.25"
       y="10" />
  </g>
  <rect
     style="fill:#869fa6;fill-opacity:1;stroke:none;stroke-width:0.528828"
     id="rect10"
     width="159.99998"
     height="5"
     x="49.750008"
     y="193.89999" />
  <rect
     style="fill:#869fa6;fill-opacity:1;stroke:none;stroke-width:0.2"
     id="rect11"
     width="24"
     height="12"
     x="23"
     y="202" />
  <g
     id="g13"
     transform="translate(454.72957,139.97621)">
    <rect
       style="fill:#869fa6;fill-opacity:1;stroke:none;stroke-width:0.2"
       id="rect12"
       width="5"
       height="5"
       x="-203.95509"
       y="41.523788" />
    <rect
       style="fill:#869fa6;fill-opacity:1;stroke:none;stroke-width:0.2"
       id="rect13"
       width="5"
       height="5"
       x="-137.955"
       y="41.523788" />
  </g>
</svg>
